<svg xmlns="http://www.w3.org/2000/svg" id="upsales-logo" viewBox="0 0 90 22" width="100%" height="100%" xmlns:xlink="http://www.w3.org/1999/xlink">
 <g fill="#1d3d48">
  <path d="M62.3877 0V17.4584H59.7822V0H62.3877Z">
  </path>
  <path d="M4.02097 17.2116C3.20036 16.8834 2.48233 16.4525 1.88739 15.8576C1.27194 15.2832 0.820606 14.5857 0.492364 13.7445C0.164121 12.9034 0 11.9597 0 10.9134V4.45117H2.64646V11.0571C2.64646 11.652 2.74903 12.1854 2.95418 12.6983C3.15933 13.2111 3.42603 13.6625 3.7953 14.0318C4.14406 14.4215 4.5954 14.7088 5.08776 14.9344C5.58012 15.1601 6.15455 15.2627 6.74949 15.2627C7.34443 15.2627 7.89834 15.1601 8.41121 14.9344C8.90358 14.7293 9.3344 14.4215 9.70367 14.0318C10.0524 13.642 10.3396 13.2111 10.5448 12.6983C10.7499 12.1854 10.8525 11.6315 10.8525 11.0571V4.45117H13.499V10.8929C13.499 11.9392 13.3349 12.8829 13.0066 13.724C12.6784 14.5651 12.2065 15.2627 11.6116 15.8576C11.0166 16.432 10.2986 16.8834 9.478 17.2116C8.6574 17.5398 7.73422 17.6834 6.74949 17.6834C5.74424 17.6834 4.84158 17.5398 4.02097 17.2116Z">
  </path>
  <path d="M20.3502 17.2117C19.5706 16.8834 18.9347 16.391 18.4423 15.7346V21.9096H15.96V4.55381H18.4628V6.46172C18.9552 5.78472 19.5911 5.27184 20.3912 4.88205C21.1708 4.49226 22.0119 4.28711 22.9146 4.28711C23.7762 4.28711 24.5968 4.45123 25.3559 4.75896C26.1355 5.0872 26.8125 5.53853 27.4074 6.11296C28.0024 6.7079 28.4742 7.40541 28.823 8.22602C29.1717 9.04662 29.3564 9.96981 29.3564 10.975C29.3564 11.9803 29.1717 12.9035 28.823 13.7241C28.4742 14.5447 27.9818 15.2627 27.3869 15.8577C26.792 16.4526 26.0944 16.9039 25.3149 17.2117C24.5353 17.5399 23.7352 17.6835 22.8941 17.6835C21.9914 17.7245 21.1503 17.5399 20.3502 17.2117ZM24.2071 15.0165C24.7199 14.7909 25.1713 14.4831 25.5611 14.0933C25.9508 13.7036 26.2381 13.2317 26.4637 12.6983C26.6689 12.1649 26.792 11.5905 26.792 10.9956C26.792 10.4006 26.6894 9.8262 26.4637 9.29281C26.2381 8.75941 25.9508 8.28756 25.5611 7.89778C25.1713 7.50799 24.7199 7.20026 24.2071 6.97459C23.6942 6.74893 23.1403 6.64635 22.5453 6.64635C21.9504 6.64635 21.376 6.76944 20.8631 6.99511C20.3502 7.22078 19.8989 7.5285 19.5091 7.91829C19.1193 8.30808 18.8321 8.77993 18.6064 9.31332C18.4013 9.84671 18.2782 10.4006 18.2782 10.9956C18.2782 11.5905 18.3807 12.1649 18.6064 12.6983C18.8116 13.2317 19.1193 13.7036 19.5091 14.0933C19.8989 14.4831 20.3502 14.7909 20.8631 15.0165C21.376 15.2422 21.9504 15.3653 22.5453 15.3653C23.1403 15.3448 23.6942 15.2422 24.2071 15.0165Z">
  </path>
  <path d="M47.2261 17.2732C46.4465 16.945 45.749 16.4936 45.154 15.8987C44.5591 15.3037 44.0667 14.5857 43.718 13.7651C43.3487 12.924 43.1846 12.0213 43.1846 11.0161C43.1846 9.99032 43.3692 9.06714 43.718 8.24654C44.0667 7.42593 44.5386 6.7079 45.154 6.13347C45.749 5.53853 46.4465 5.0872 47.2466 4.75896C48.0467 4.43072 48.8673 4.28711 49.7289 4.28711C50.5905 4.28711 51.4111 4.47175 52.2112 4.84102C53.0113 5.21029 53.6473 5.70266 54.1397 6.35914V4.55381H56.6835V17.4989H54.1397V15.591C53.6268 16.268 52.9703 16.7808 52.1907 17.1706C51.3906 17.5604 50.57 17.7451 49.7084 17.7451C48.8262 17.7451 48.0261 17.6014 47.2261 17.2732ZM51.7189 15.0371C52.2318 14.8114 52.6831 14.4831 53.0524 14.0934C53.4216 13.7036 53.7294 13.2317 53.9345 12.6983C54.1602 12.1649 54.2628 11.5905 54.2628 10.9751C54.2628 10.3801 54.1602 9.8262 53.9345 9.29281C53.7088 8.75941 53.4216 8.28757 53.0524 7.89778C52.6831 7.50799 52.2318 7.20026 51.7189 6.95408C51.206 6.72841 50.6316 6.60532 50.0366 6.60532C49.4212 6.60532 48.8673 6.7079 48.3544 6.93356C47.8415 7.15923 47.3902 7.46696 47.0004 7.85675C46.6106 8.24653 46.3234 8.71838 46.0977 9.25178C45.8721 9.78517 45.7695 10.3596 45.7695 10.9751C45.7695 11.5905 45.8721 12.1444 46.0977 12.6983C46.3234 13.2317 46.6106 13.7036 47.0004 14.0934C47.3902 14.4831 47.8415 14.8114 48.3544 15.0371C48.8673 15.2627 49.4417 15.3653 50.0366 15.3653C50.6316 15.3858 51.1855 15.2627 51.7189 15.0371Z">
  </path>
  <path d="M75.5366 12.7607C75.4955 12.8838 75.434 12.9863 75.3724 13.1094C75.0237 13.7454 74.4698 14.2993 73.6902 14.7506C72.6644 15.3456 71.6592 15.5712 70.6745 15.4071C69.6898 15.243 68.8691 14.7506 68.1716 13.9505L77.5676 8.53454L77.0342 7.61136C76.5623 6.79075 75.9674 6.11375 75.2904 5.58036C74.6134 5.04697 73.8543 4.67769 73.0542 4.47254C72.2541 4.24687 71.413 4.20584 70.5514 4.32894C69.6898 4.45203 68.8486 4.73924 68.028 5.2316C67.2074 5.70345 66.5304 6.29839 65.997 7.01642C65.4636 7.73445 65.0944 8.49351 64.8687 9.31412C64.643 10.1347 64.602 10.9964 64.7046 11.8785C64.8277 12.7607 65.1149 13.6223 65.5867 14.4429C66.0586 15.2635 66.633 15.9405 67.3305 16.4739C68.028 17.0073 68.7666 17.3971 69.5872 17.6022C70.4078 17.8074 71.2694 17.8689 72.1721 17.7458C73.0747 17.6228 73.9569 17.315 74.8596 16.7816C76.07 16.0841 76.9521 15.243 77.506 14.2788C77.7727 13.8069 77.9779 13.3146 78.142 12.8017L75.5366 12.7607ZM67.1459 11.9606C66.8997 11.0169 66.9407 10.1142 67.269 9.23206C67.5972 8.34991 68.2127 7.65239 69.1153 7.13951C70.0385 6.60612 70.9412 6.40097 71.8438 6.52406C72.726 6.64715 73.5261 7.119 74.2031 7.89857L67.1459 11.9606Z">
  </path>
  <path d="M81.2195 16.987C80.2759 16.4947 79.5373 15.7972 78.9834 14.8535L81.3016 13.4995C81.7119 14.1149 82.1838 14.5868 82.7582 14.915C83.3121 15.2432 84.0096 15.4279 84.8302 15.4279C85.6919 15.4279 86.3278 15.2432 86.7586 14.8945C87.1895 14.5252 87.4151 14.0944 87.4151 13.602C87.4151 13.3148 87.3126 13.0686 87.1279 12.884C86.9433 12.6994 86.6971 12.5558 86.3894 12.4327C86.0816 12.3096 85.7329 12.207 85.3431 12.1249C84.9533 12.0429 84.543 11.9403 84.0917 11.8377C83.5378 11.7352 83.0044 11.5915 82.471 11.4069C81.9376 11.2428 81.4452 11.0171 81.0144 10.7299C80.5836 10.4427 80.2348 10.0939 79.9681 9.64261C79.7014 9.19128 79.5783 8.65788 79.5783 7.98088C79.5783 7.48852 79.7014 6.99615 79.9271 6.5243C80.1528 6.05246 80.5015 5.64215 80.9323 5.27288C81.3632 4.90361 81.8966 4.61639 82.512 4.41124C83.1275 4.20609 83.825 4.10352 84.6046 4.10352C85.8355 4.10352 86.8612 4.30867 87.7229 4.73949C88.5845 5.1703 89.282 5.76524 89.8359 6.54482L87.5998 7.83727C87.2715 7.34491 86.8612 6.97564 86.3894 6.68843C85.897 6.42173 85.3226 6.27812 84.6046 6.27812C83.8045 6.27812 83.2095 6.44224 82.8197 6.77049C82.4299 7.09873 82.2453 7.48852 82.2453 7.96037C82.2453 8.47324 82.5325 8.84252 83.0864 9.04767C83.6403 9.25282 84.3584 9.45797 85.3431 9.68364C85.897 9.78621 86.4919 9.92982 87.0459 10.1145C87.5998 10.2786 88.0921 10.5042 88.5229 10.7915C88.9743 11.0787 89.323 11.4479 89.6102 11.8993C89.8975 12.3506 90.0411 12.9045 90.0411 13.5815C90.0411 14.0739 89.9385 14.5457 89.7128 15.0381C89.4872 15.5305 89.1794 15.9613 88.7281 16.3716C88.2973 16.7614 87.7434 17.0896 87.0664 17.3358C86.3894 17.582 85.6098 17.7051 84.7071 17.7051C83.3121 17.7256 82.1427 17.4794 81.2195 16.987Z">
  </path>
  <path d="M32.7205 16.987C31.7768 16.4947 31.0383 15.7972 30.4844 14.8535L32.8026 13.4995C33.2129 14.1149 33.6847 14.5868 34.2592 14.915C34.8131 15.2432 35.5106 15.4279 36.3312 15.4279C37.1928 15.4279 37.8288 15.2432 38.2596 14.8945C38.6904 14.5252 38.9161 14.0944 38.9161 13.602C38.9161 13.3148 38.8135 13.0686 38.6289 12.884C38.4443 12.6994 38.1981 12.5558 37.8903 12.4327C37.5826 12.3096 37.2339 12.207 36.8441 12.1249C36.4543 12.0429 36.044 11.9403 35.5926 11.8377C35.0387 11.7352 34.5053 11.5915 33.972 11.4069C33.4386 11.2428 32.9462 11.0171 32.5154 10.7299C32.0846 10.4427 31.7358 10.0939 31.4691 9.64261C31.2024 9.19128 31.0793 8.65788 31.0793 7.98088C31.0793 7.48852 31.2024 6.99615 31.4281 6.5243C31.6537 6.05246 32.0025 5.64215 32.4333 5.27288C32.8641 4.90361 33.3975 4.61639 34.013 4.41124C34.6284 4.20609 35.326 4.10352 36.1055 4.10352C37.3364 4.10352 38.3622 4.30867 39.2238 4.73949C40.0855 5.1703 40.783 5.76524 41.3369 6.54482L39.1007 7.83727C38.7725 7.34491 38.3622 6.97564 37.8903 6.68843C37.398 6.42173 36.8236 6.27812 36.1055 6.27812C35.3054 6.27812 34.7105 6.44224 34.3207 6.77049C33.9309 7.09873 33.7463 7.48852 33.7463 7.96037C33.7463 8.47324 34.0335 8.84252 34.5874 9.04767C35.1413 9.25282 35.8593 9.45797 36.8441 9.68364C37.398 9.78621 37.9929 9.92982 38.5468 10.1145C39.1007 10.2786 39.5931 10.5042 40.0239 10.7915C40.4753 11.0787 40.824 11.4479 41.1112 11.8993C41.3984 12.3506 41.542 12.9045 41.542 13.5815C41.542 14.0739 41.4395 14.5457 41.2138 15.0381C40.9881 15.5305 40.6804 15.9613 40.2291 16.3716C39.7983 16.7614 39.2443 17.0896 38.5673 17.3358C37.8903 17.582 37.1108 17.7051 36.2081 17.7051C34.8131 17.7256 33.6642 17.4794 32.7205 16.987Z">
  </path>
 </g>
</svg>