<svg xmlns="http://www.w3.org/2000/svg" width="256" height="256" viewBox="0 0 256 256">
<!-- SVG created with Arrow, by QuiverAI (https://quiver.ai) -->
  <path d="m242 176.1c-6.5 0-9.21 6.22-9.21 9.61 0 5.77 4.39 9.08 8.84 9.08 6.77 0 9.38-5.47 9.38-9.11 0-5.11-3.81-9.58-9.01-9.58z" fill="#99CC9A"/>
  <path d="m189.4 63.31c-3.32-6.3-8.33-9.44-14.32-9.4-6.26 0.05-11.33 4.18-13.41 8.35l-31.3 57.38-30.21-56.73c-3.27-5.77-7.71-9-13.47-9-6.52 0-11.56 4.03-13.78 9.26l-67.71 137.6h39.82l48.07-102.6-5.36-2.76-47.41 99.06h-25.8l63.85-128.3c2.11-4.08 4.76-5.42 8.28-5.42 3.92 0 6.39 2.86 8.13 6.26l35.87 65.79 37.03-66.45c2.09-3.6 4.96-5.73 7.62-5.73 3.9 0 6.67 2.44 8.84 7.13l46.31 99.55 5.89-3.03-46.94-100.8z" fill="#000"/>
</svg>
