<svg xmlns="http://www.w3.org/2000/svg" viewBox="0 0 320 320">
  <title>LobeHub</title>
  <path d="M294 172.519c0 75.655-59.442 128.5-134 128.5-74.558 0-134-53.845-134-129.5 0-22.5 5-32.141 31.5-35.671 47.5-6.329 72.542-3.829 102.5-3.829 29.959 0 72.556-1.27 102.5 3.829 24.5 4.171 30 8.671 31.5 36.671z"
        fill={a.fill} />
  <path d="M159.75 242.51c-28.25 0-35.75 3.5-35.75 3.5s3.5 27 35.75 27 35.75-27 35.75-27-7.5-3.5-35.75-3.5z"
        fill="#972021" />
  <path d="M271.999 148.517c0 6.351-49.92 11.5-111.5 11.5s-111.5-5.149-111.5-11.5c0-6.352 49.92-11.5 111.5-11.5s111.5 5.148 111.5 11.5z"
        fill={b.fill} />
  <path d="M135.503 160.013c.633-14.972-.483-22.788-5.5-36.443 0 0 9.5-12.056 27-12.056s30 3.064 30 3.064c-3.028 16.793-3.182 26.921-2.5 45.435h-49z"
        fill={c.fill} />
  <path d="M119.191 234.294c14.742-7.076 24.811-21.51 24.811-39.273 0-25.406-20.595-48-46-48s-47 19.594-47 45c0 13.983 6.542 26.812 16.662 35.521 5.893-2.245 12.652-3.521 19.838-3.521 12.705 0 24.077 3.989 31.689 10.273zM200.813 234.294c-14.742-7.076-24.811-21.51-24.811-39.273 0-25.406 20.595-48 46-48s47 19.594 47 45c0 13.983-6.543 26.812-16.662 35.521-5.893-2.245-12.652-3.521-19.838-3.521-12.705 0-24.077 3.989-31.689 10.273z"
        fill="#fff" />
  <path d="M101 221.012c15.464 0 28-12.536 28-28s-12.536-28-28-28-28 12.536-28 28 12.536 28 28 28z"
        fill={d.fill} />
  <path d="M219 221.012c-15.464 0-28-12.536-28-28s12.536-28 28-28 28 12.536 28 28-12.536 28-28 28z"
        fill={e.fill} />
  <path d="M172.997 19.016c-14.027 0-19.5-11.5-41-11-23.394 0-34 13-45.5 23-1.958 1.702-11.5 7-16 9-19.683 8.748-34.5 21.5-34.5 40.5 0 20.711 17.461 37.5 39 37.5 3.536 0 6.963-.453 10.22-1.301 8.7 10.539 22.179 16.658 37.28 17.301 23.5 1 31-15.25 44.5-8.5 9.259 4.629 13.83 8.5 28.5 8.5 17.108 0 25.057-5.233 30-11 9-10.5 22.879-4 31.5-4 18.778 0 34-14.551 34-32.5 0-17.95-15.222-32.5-34-32.5-5.15 0-14.856 1.27-17-7-3.5-13.5-20.148-29-44-29-9.318 0-17.691 1-23 1z"
          fill={g.fill} />
  <path d="M82.998 20.517a9.5 9.5 0 11-19 0 9.5 9.5 0 0119 0z" fill={h.fill} />
  <path d="M71.002 108.021c0 8.836-7.163 16-16 16s-16-7.164-16-16c0-8.837 7.163-16 16-16s16 7.163 16 16z"
        fill={i.fill} />
  <path d="M282.002 49.516c0 8.56-6.94 15.5-15.5 15.5-8.56 0-15.5-6.94-15.5-15.5 0-8.56 6.94-15.5 15.5-15.5 8.56 0 15.5 6.94 15.5 15.5z"
        fill={j.fill} />
  <path d="M132.232 244.111c5.483-.823 14.191-1.601 27.515-1.601 12.212 0 20.546.654 26.073 1.396-1.542 5.861-12.963 8.104-26.823 8.104-13.698 0-25.013-2.191-26.765-7.899z"
        fill="#fff" />
  <path d="M160.006 290.016c20.099 0 23.305-20.488 23.927-25.61.478-4.146-1.675-6.244-4.02-7.659-2.345-1.414-9.379-2.731-19.907-2.731-10.527 0-17.514 1.317-19.906 2.731-2.393 1.415-4.546 3.513-4.02 7.659.622 5.122 3.828 25.61 23.926 25.61z"
        fill={k.fill} />
  <path d="M171.694 129.744c-5.721-3.89-13.954-4.248-19.786-.526-7.724 4.929-16.971 7.798-26.91 7.798-27.062 0-49-21.267-49-47.5 0-26.234 21.938-47.5 49-47.5 13.628 0 25.956 5.392 34.838 14.097 4.948 4.85 13.088 6.24 19.498 3.609a42.502 42.502 0 0116.164-3.166c22.92 0 41.5 18.012 41.5 40.23 0 22.218-18.58 40.23-41.5 40.23-8.856 0-17.065-2.69-23.804-7.272z"
          fill={m.fill} />
  <path d="M219.002 106.51c0 7.456-6.044 13.5-13.5 13.5s-13.5-6.044-13.5-13.5 6.044-13.5 13.5-13.5 13.5 6.044 13.5 13.5z"
        fill={n.fill} />
</svg>