<svg xmlns="http://www.w3.org/2000/svg" xml:space="preserve" width="1000" height="684.206"><path d="M1362.027 1747.167c3.576 0 5.855 3.612 8.12 9.197 2.925 6.906 16.579 19.71 35.4 19.71 14.292 0 28.258-8.877 39.626-18.075 10.719-8.87 19.486-9.194 19.486-13.147 0-1.3-2.27-2.29-4.865-2.29-10.717 0-29.547 16.09-49.688 16.09-22.74 0-41.261-19.702-41.261-30.873 0-3.288 1.303-5.918 5.522-5.918 4.885 0 10.41 11.839 23.069 11.839 11.686 0 21.437-11.174 37.673-8.878 1.953.328 2.594-2.62 1.28-3.293-32.471-18.383-66.886-35.804-66.886-93.95 0-44.674 25.008-87.723 80.212-87.723 57.5 0 85.1 37.456 85.1 87.723 0 43.364-26.285 83.433-61.702 83.433-1.298 0-2.592 0-3.904-.322-2.279-.646-4.229-2.612-4.229-5.58 0-3.604.984-4.607 3.259-6.23 22.743-16.113 30.553-31.884 30.553-75.58 0-30.871-12.683-65.166-44.53-65.166-34.422 0-49.04 36.92-49.04 70.091 0 38.446 9.75 56.524 33.794 74.575 25.964 19.726 56.846 28.925 56.846 46.996 0 8.858-9.43 10.507-15.606 10.832-5.521.331-13.326 2.31-17.222 7.89-15.906 16.756-34.428 34.162-56.503 34.162-31.506 0-50.033-33.509-50.033-45.99 0-4.94.97-9.523 5.53-9.523M1676.492 1697.848h4.988c1.484 0 3.468-1.507 3.969-3.768.743-2.018.99-3.27.99-9.822V1571.81c0-6.77-.245-8.052-.99-10.043-.503-1.766-2.233-3.272-3.969-3.272h-4.988c-3.467 0-6.208-3.021-6.208-6.802 0-5.524 2.74-7.295 11.196-7.295h97.489l4.745.267c3.943.245 5.206 1.239 6.93 5.525l7.222 16.841c1.492 3.525 2.004 5.794 2.004 7.052 0 3.527-2.495 6.03-6.475 6.03-3.243 0-4.475-.995-7.453-5.518-4.979-7.313-9.702-11.076-15.442-12.061-4.224-.767-10.7-1.029-23.113-1.029-13.194 0-18.141.516-21.403 1.769-3.976 1.503-4.718 4.263-4.718 17.6v39.758c0 5.532.742 8.049 2.24 9.057 1.254.744 2.984.99 10.184.99h19.419c6.471 0 9.67 3.02 9.67 8.82 0 6.034-2.475 8.285-9.67 8.285h-31.843v32.219c0 13.32 1.51 15.072 15.17 15.072h16.673c15.662 0 20.38-1.752 25.379-9.04 1.735-2.277 2.716-3.781 2.971-4.294.99-.994 2.256-2 3.48-2.5.736-.506 1.738-.774 2.718-.774 3.756 0 6.74 2.785 6.74 5.794 0 .751-.507 2.273-1.254 4.278l-7.201 18.61c-1.492 3.798-3.494 5.037-8.698 5.037h-95.762c-8.456 0-11.45-1.765-11.45-7.289 0-3.77 2.993-7.048 6.46-7.048M1543.432 1697.848h4.744c1.724 0 3.724-1.263 4.212-3.273.737-2.006 1.024-3.018 1.024-9.796v-113.718c0-6.284-.287-7.541-1.024-9.295-.488-1.766-2.488-3.272-4.212-3.272h-4.745c-3.477 0-6.203-3.021-6.203-6.802 0-5.524 2.725-7.295 10.948-7.295h95.758c7.693 0 9.689 1.254 12.174 7.549l7.706 19.115 1.002 2.769c.5 1.02.751 2.014.751 3.017 0 3.02-3 5.534-6.723 5.534-2.975 0-4.486-1.01-7.463-5.278-5.969-8.565-9.2-11.82-13.422-13.583-4.234-1.752-6.971-1.752-21.889-1.752-17.156 0-21.887.252-24.372 1.99-2.976 1.76-3.47 4.294-3.47 15.359v105.662c0 6.534 0 8.044.734 9.796.735 2.012 2.985 3.273 5.221 3.273h5.48c3.46 0 6.455 3.024 6.455 7.045 0 5.524-2.995 7.289-11.935 7.289h-46.007c-8.456 0-11.439-1.765-11.439-7.29 0-4.02 2.983-7.044 6.694-7.044M1503.133 1382.676c-.25-5.77-.745-6.267-8.456-7.543-4.232-.5-6.697-3.01-6.697-6.781 0-2.014 1.24-4.289 2.97-5.528 8.722-6.814 38.302-12.592 64.16-12.592 27.625 0 46.766 5.549 61.451 17.366 18.397 14.829 28.59 39.987 28.59 70.42 0 27.181-7.945 50.077-22.626 64.907-15.168 15.606-35.588 22.4-65.405 22.4-28.113 0-57.214-5.296-65.915-12.089-1.98-1.5-3.222-3.764-3.222-6.017 0-3.788 2.733-6.3 7.454-6.535 6.714-.518 7.449-1.52 7.7-8.077l.253-5.524v-98.868zm35.078 101.134c0 14.34.494 17.353 3.72 19.865 3.74 3.03 10.952 5.048 18.663 5.048 29.586 0 47.243-26.17 47.243-70.439 0-44.291-17.657-69.934-48.242-69.934-9.445 0-16.931 2.51-19.64 6.284-1.492 2.515-1.744 4.548-1.744 14.586zM1665.058 1458.403c7.706-9.06 9.931-10.562 33.557-27.157 14.18-10.071 20.911-15.602 26.367-21.655 5.228-6.02 7.954-12.062 7.954-18.86 0-13.309-10.931-22.38-27.097-22.38-14.169 0-28.113 7.56-36.796 19.865l-3.494 5.04c-1.506 2.006-3.739 3.273-6.223 3.273-4.459 0-7.945-3.273-7.945-7.807 0-1.244.221-3.515.73-5.023l6.215-25.16c1.483-6.046 3.484-8.306 7.708-8.306 2.231 0 3.484.506 5.72 2.26 2.253 2.014 3.237 2.521 5.227 2.521 1.497 0 1.986-.257 5.467-1.25 7.223-2.275 16.923-3.532 26.122-3.532 32.835 0 54.21 19.13 54.21 48.3 0 12.824-4.961 25.41-13.425 34.216-7.949 8.321-14.419 13.32-34.064 27.174-5.216 3.77-9.22 6.528-12.209 8.807-4.954 3.769-8.95 7.795-11.409 11.566-2 2.778-2.755 6.547-2.755 10.306 0 10.32 7.478 16.856 18.91 16.856 8.2 0 16.647-2.749 23.387-8.047 5.221-4.021 6.206-5.037 11.94-13.58 2.231-3.274 3.724-4.271 6.46-4.271 4.22 0 7.212 2.767 7.212 6.04 0 .741 0 2.24-.5 3.51l-5.97 27.164c-1.002 4.541-3.232 7.053-6.971 7.053-1.98 0-2.736-.246-5.225-2.017-2.218-1.5-3.966-2.246-5.707-2.246-1 0-2.24.229-3.492.484-3.467.757-5.456 1.267-6.218 1.505-7.208 1.504-14.424 2.274-21.389 2.274-27.347 0-45.746-16.104-45.746-40.503 0-10.072 3.22-19.115 9.45-26.42M1113.743 1504.706c25.881 0 28.866-1.031 35.833-11.588 2.487-3.764 4.218-5.272 6.955-5.272 3.738 0 6.454 2.755 6.454 6.036 0 1.006-.23 2.01-.974 4.02l-6.462 17.104c-1.244 3.031-2.492 5.025-3.977 5.772-1.257.77-1.996 1.031-5.987 1.031h-91.264c-8.209 0-10.941-1.778-10.941-7.294 0-3.787 2.477-7.06 5.964-7.06h4.979c1.735 0 3.473-1.257 4.22-3.255.5-1.781.75-3.28.75-9.828v-112.939c0-6.8-.25-8.055-.75-9.81-.746-2.032-2.485-3.271-4.22-3.271h-4.98c-3.486 0-6.456-3.267-6.456-7.046 0-5.524 2.971-7.294 11.436-7.294h45.751c9.209 0 12.194 1.77 12.194 7.294 0 3.78-2.741 7.046-6.469 7.046h-5.725c-1.982 0-4.215 1.239-5.217 3.27-.755 1.756-.755 3.012-.755 9.811v50.06c0 5.27.25 6.791 1.994 7.531 1 .503 2.238.77 3.485.77h25.373c6.964 0 10.689 3.01 10.689 8.56 0 5.777-3.474 8.538-10.69 8.538h-30.851v37.48c0 9.828 1.503 10.334 19.64 10.334M1750.87 1333.777h-692.993c-21.206 0-38.391-17.377-38.391-38.832 0-21.43 17.186-38.83 38.391-38.83h692.994c21.204 0 38.395 17.4 38.395 38.83 0 21.455-17.19 38.832-38.395 38.832m-598.802-52.906c.068-.713.96-1.16 1.717-1.16h1.589c1.33 0 2.47-1.353 2.47-2.83 0-1.908-1.016-2.68-4.057-2.68h-17.897c-3.176 0-4.376.772-4.376 2.68 0 1.477 1.2 2.83 2.669 2.83h1.707c.758 0 1.468.447 1.778 1.16.31.762.31 1.215.31 3.852v20.138l-16.052-15.836c-.959-1.028-2.086-1.603-3.226-1.603-1.21 0-1.724.382-2.922 1.604l-15.107 16.29v-20.592c0-2.496 0-3.09.262-3.851.247-.773.939-1.16 1.715-1.16h1.902c1.528 0 2.655-1.353 2.655-2.83 0-1.908-1.02-2.68-4.557-2.68h-12.823c-3.106 0-4.375.772-4.375 2.68 0 1.477 1.269 2.83 2.666 2.83h1.71c.769 0 1.398.446 1.715 1.16.321.648.379 1.54.379 3.851v22.528c0 2.617-.058 3.273-.38 3.977-.316.761-.945 1.343-1.715 1.343h-1.709a2.695 2.695 0 0 0-2.666 2.691c0 2 1.269 2.762 4.375 2.762h14.532c1.531 0 2.408-.387 4.506-2.7l13.713-15.215 15.972 15.868c1.658 1.602 2.666 2.047 4.069 2.047h11.168c3.043 0 4.058-.761 4.058-2.762 0-1.534-1.14-2.691-2.47-2.691h-2.05c-.757 0-1.123-.45-1.453-1.145-.313-.646-.313-1.558-.313-4.175v-22.528c0-2.496 0-3.091.511-3.853m119.35-6.67h-20.106c-1.908 0-2.927 1.083-2.927 2.68 0 1.942 1.078 2.456 3.616 2.883 2.157.394 2.338 1.554 1.527 3.604l-.258.646c-.503 1.287-1.212 1.407-3.418 1.407h-14.593c-1.47 0-2.227-.12-2.617-.313-.437-.2-.75-.382-.954-.768l-.173-.46c-.638-1.466.062-3.72 2.658-4.034 2.47-.331 3.487-1.02 3.487-2.816 0-1.792-1.322-2.825-3.298-2.825h-15.86c-2.35 0-3.428.771-3.428 2.5 0 1.656.82 2.365 2.667 2.81 1.33.331 1.778.648 2.345 1.36.441.571 1.33 2.312 2.231 4.034l14.903 29.85c1.719 3.4 4.949 4.174 7.932 4.174 2.72 0 6.163-.97 7.739-4.174l14.401-28.7c2.219-4.425 2.91-5.37 4.38-5.898l1.337-.447c.946-.313 1.718-1.15 1.718-2.496 0-1.932-1.154-3.016-3.31-3.016m117.387 0h-11.865c-2.665 0-3.949.825-5.793 2.825l-13.385 15.197c-1.32 1.491-1.827 2.384-1.827 3.025 0 1.276 1.079 1.851 3.737 2.113 6.734.577 10.08 3.014 10.08 8.162 0 5.762-4.635 8.399-10.401 8.399-2.227 0-4.438-.447-5.585-1.274-.997-.775-1.391-2.065-1.597-4.829l-.173-3.14v-19.772c0-2.495 0-3.213.254-3.78.316-.828 1.14-1.362 1.844-1.362h1.967c1.33 0 2.411-1.203 2.411-2.737 0-2.053-1.082-2.825-4.38-2.825h-17.825c-3.114 0-4.395.772-4.395 2.825 0 1.534 1.28 2.737 2.668 2.737h1.727c.935 0 1.518.534 1.84 1.362.24.707.24 1.285.24 3.78v22.019c0 2.63-.437 3.073-2.915 3.225-1.902.101-2.968.999-2.968 2.678 0 .837.506 1.805 1.066 2.385 3.115 2.488 15.153 3.718 24.735 3.718 16.378 0 25.395-4.244 25.395-12.318 0-5.578-2.478-10.204-11.293-11.75l8.505-9.375c3.162-3.525 5.447-4.746 8.11-5.19 1.901-.534 2.164-.586 2.727-.901.565-.331 1.16-1.15 1.16-2.182 0-1.93-1.412-3.014-4.064-3.014m85.338 0h-17.842c-3.109 0-4.361.772-4.361 2.825 0 1.535 1.252 2.738 2.653 2.738h1.706c.95 0 1.526.534 1.834 1.361.26.707.26 1.285.26 3.78v22.346c0 2.506-.05 3.394-.26 3.841-.31.709-.883 1.345-1.834 1.345h-1.706c-1.402 0-2.653 1.168-2.653 2.825 0 2 1.252 2.761 4.36 2.761h17.843c3.28 0 4.377-.76 4.377-2.762 0-1.656-1.097-2.824-2.48-2.824h-1.897c-.776 0-1.343-.498-1.653-1.345-.33-.842-.446-1.224-.446-3.841v-22.346c0-1.666.066-3.272.55-4.034.47-.713.91-1.107 1.548-1.107h1.897c1.2 0 2.48-1.203 2.48-2.738 0-2.053-1.276-2.824-4.376-2.824m37.98 0h-12.04c-2.607 0-3.426.892-5.322 2.825l-17.47 17.456c-.81.829-1.14 1.275-1.14 1.806 0 .5.51 1.142 1.14 1.65l12.647 10.78c1.834 1.6.756 3.554-.262 3.554-1.149 0-1.821 1.063-1.821 2.99 0 1.736.87 2.761 3.035 2.761h20.231c2.098 0 3.238-.828 3.238-2.699 0-1.597-.819-2.447-3.238-2.754-2.215-.3-3.087-.3-4.636-.698-1.44-.39-3.288-1.48-4.5-2.505l-11.541-10.017 14.271-14.183c3.758-3.726 5.908-4.87 7.797-5.403 2.149-.559 3.184-.941 3.184-2.738 0-1.74-1.262-2.824-3.573-2.824m113.083 9.813-3.297-8.342c-.516-1.093-.879-1.35-2.535-1.35l-1.916-.12h-39.017c-3.292 0-4.373.772-4.373 2.825 0 1.535 1.08 2.685 2.404 2.685h1.97c.573 0 1.323.586 1.458 1.364.38.617.458 1.337.458 3.83v22.146c0 2.505-.078 3.199-.458 3.856-.136.894-.885 1.531-1.459 1.531h-1.969c-1.323 0-2.584 1.29-2.584 2.825 0 2 1.262 2.762 4.555 2.762h38.637c2.034 0 2.731-.321 3.115-1.285l2.914-7.566c.123-.383.441-.89.382-1.093-.18-.783-1.77-1.465-3.17-1.465-.51 0-.876 0-1.143.192-.506.119-.883.382-1.208.565-.183.254-.364.58-.95 1.213-1.576 1.87-4.356 3.853-10.614 3.853h-6.445c-5.394 0-5.979-.498-5.979-3.974v-7.252h12.424c2.991 0 3.832-1.597 3.832-3.273 0-1.79-1.149-3.413-3.832-3.413h-7.587c-1.974 0-3.492.142-4.003-.236-.511-.394-.836-1.09-.836-2.566v-6.874c0-3.454.27-4.16 1.928-4.551 1.057-.262 3.214-.534 8.356-.534 4.823 0 7.365.148 8.94.334 2.164.249 5.353 3.914 6.93 5.895.95 1.234 1.33 1.427 2.668 1.427 1.655 0 2.536-.65 2.734-1.485.11-.45.047-.89-.33-1.925zm108.687 21.755c-1.013 0-1.834.384-2.647 1.482-.473.568-.573.7-.776.881-.93 1.172-2.548 3.42-3.683 3.809-1.063.389-2.485.498-6.086.498-4.565 0-5.138-.317-5.138-3.133v-24.399c0-2.495 0-3.073.248-3.78.325-.828 1.08-1.362 1.915-1.362h2.647c1.482 0 2.599-1.203 2.599-2.737 0-2.053-1.117-2.825-4.675-2.825h-19.24c-3.424 0-4.617.772-4.617 2.825 0 1.534 1.193 2.737 2.467 2.737h2.856c.643 0 1.391.534 1.704 1.362.262.707.445 1.285.445 3.78v24.399c0 2.735-.445 3.132-6.14 3.132-4.9 0-7.296-1.982-9.023-4.418l-.51-.722c-.861-1.267-1.639-1.529-2.926-1.529-1.381 0-3.293.715-3.403 1.53 0 .195.111.914.31 1.418l2.931 7.642c.562 1.604 1.014 1.666 3.287 1.666h44.537c1.461 0 1.53-.062 2.17-.321.31-.124.54-.582.87-1.343l3.172-8.016c.132-.39.312-.849.264-1.045-.128-.763-2.045-1.53-3.558-1.53" style="fill:#00674b" transform="matrix(1.25 0 0 -1.25 -1250.338 2253.85)"/><path d="M1243.937 1304.22a16.3 16.3 0 0 0-1.257 4.062h-.388c-.25-.985-.896-2.444-1.6-4.062l-4.81-10.79-.951-1.507 1.653.162h11.738l1.335-.162-.829 1.508zM1069.31 1553.251c3.477-9.557 6.964-12.548 14.179-12.548 3.238 0 6.461 1.231 8.449 2.75 1.982 2.01 2.736 3.78 4.977 9.798l24.372 68.932 22.88-68.932c2.975-9.29 6.711-12.548 14.167-12.548 7.462 0 10.702 3.5 14.426 15.828l39.534 129.03c2.77 8.84 4.502 11.217 9.684 12.325h1.36c1.754 0 3.486-1.256 4.24-3.264.738-1.751.738-3.012.738-9.818v-112.935c0-6.767 0-8.021-.739-10.042-.51-1.76-2.485-3.025-4.24-3.025h-4.97c-3.474 0-6.462-3.275-6.462-7.039 0-5.539 2.988-7.296 11.432-7.296h45.266c7.964 0 10.698 1.756 10.698 7.042 0 4.018-2.485 7.293-5.96 7.293h-4.738c-1.996 0-3.982 1.265-4.719 3.025-.509 2.02-.754 3.504-.754 10.042v46.036c0 11.566 1.002 12.578 10.21 12.578h33.81c4.961 0 7.46-.758 8.69-2.28 1.261-1.5 1.261-2.513 1.261-11.817v-44.522c0-6.538 0-8.021-.748-10.042-.743-1.76-2.749-3.025-4.48-3.025h-4.722c-3.494 0-6.47-3.275-6.47-7.039 0-5.539 2.744-7.296 11.193-7.296h45.252c8.723 0 11.444 1.756 11.444 7.296 0 3.764-2.721 7.039-6.455 7.039h-4.99c-1.744 0-3.718 1.265-4.236 3.025-.735 2.02-.966 3.504-.966 10.042v112.935c0 6.292.233 8.067.966 9.819.516 1.763 2.492 3.263 4.235 3.263h4.99c3.471 0 6.456 3.02 6.456 7.038 0 5.54-2.985 7.306-11.444 7.306h-45.252c-8.45 0-11.449-1.765-11.449-7.306 0-4.018 3-7.038 6.727-7.038h4.723c1.73 0 3.736-1.256 4.48-3.263.748-1.752.748-3.273.748-9.82v-37.21h-53.972v37.21c0 6.293.246 8.068.755 9.82.737 1.763 2.722 3.263 4.718 3.263h4.738c3.476 0 6.197 3.02 6.197 7.038 0 5.54-2.721 7.306-10.935 7.306h-82.165c-6.71 0-9.45-2.016-9.45-7.044 0-4.024 2.485-6.546 7.95-7.037 5.972-.74 8.706-2.767 8.706-6.539 0-1.516-.25-3.514-.993-6.046l-29.341-96.337-29.59 92.07c-1.997 6.03-2.488 8.291-2.488 10.559 0 4.53 1.735 6.03 8.446 6.783 5.476.76 7.97 2.781 7.97 6.806 0 4.515-2.74 6.783-8.453 6.783h-48.743c-5.723 0-8.72-2.75-8.72-7.53 0-3.792 1.995-5.552 7.216-6.812 5.725-1.5 7.719-2.76 9.202-6.538.5-1 1.008-3 1.99-5.786l11.436-33.703-23.118-65.139-33.57 94.579-1.994 5.777c-.741 2.024-1 3.79-1 5.526 0 4.031 2.245 5.803 7.714 6.3 6.465.5 8.959 2.26 8.959 6.546 0 4.516-2.494 6.783-8.206 6.783h-51.244c-5.717 0-8.447-2.267-8.447-6.537 0-4.026 1.743-5.786 6.972-6.792 7.945-1.773 9.19-3.027 12.927-13.337zM1239.766 1350.232c42.068 0 71.277 23.973 79.88 63.095 8.377-38.799 37.497-63.095 78.792-63.095 50.494 0 82.558 34.474 82.558 88.3 0 52.837-32.064 86.792-82.074 86.792-41.611 0-70.563-23.767-79.125-62.786-8.375 38.87-37.62 62.786-79.52 62.786-49.994 0-81.833-34.219-81.833-88.047 0-52.57 32.087-87.045 81.322-87.045m158.918 157.223c27.608 0 45.011-26.898 45.011-70.176 0-42.261-17.162-68.927-44.5-68.927-28.107 0-44.786 25.642-44.786 68.683 0 43.756 16.68 70.42 44.274 70.42m-158.672 0c27.608 0 45.011-26.898 45.011-70.176 0-42.261-17.155-68.927-44.51-68.927-28.104 0-44.77 25.642-44.77 68.683 0 43.756 16.666 70.42 44.269 70.42" style="fill:#00674b" transform="matrix(1.25 0 0 -1.25 -1250.338 2253.85)"/></svg>
