<svg xmlns="http://www.w3.org/2000/svg" width="724.53" height="724.53" viewBox="-4.541 -4.541 151.36 151.36"><path fill="#006f46" d="M97.198 73.86s-.835.056-1.245.121c-1.584.255-2.055.684-2.055 2.634v15.382c0 2.098 1.306 2.223 3.149 2.326 4.497.255 7.11-3.74 7.11-10.2 0-6.466-2.595-10.263-6.959-10.263 0 0-.835.056-1.245.122-1.584.255-2.055.683-2.055 2.633v15.382c0 2.098 1.306 2.223 3.149 2.327 4.497.255 7.11-3.74 7.11-10.201 0-6.466-2.595-10.263-6.959-10.263m-47.212.226c-4.034 0-6.525 3.848-6.525 10.227 0 6.237 2.451 10.011 6.599 10.011 4.035 0 6.565-3.922 6.565-10.08 0-6.236-2.569-10.159-6.639-10.159m24.076 0c-4.035 0-6.531 3.85-6.531 10.228 0 6.237 2.457 10.011 6.604 10.011 4.031 0 6.561-3.922 6.561-10.08 0-6.236-2.565-10.159-6.634-10.159m23.136-.225s-.835.057-1.245.122c-1.584.255-2.055.683-2.055 2.634v15.382c0 2.097 1.306 2.222 3.149 2.326 4.497.255 7.11-3.74 7.11-10.201 0-6.465-2.595-10.262-6.959-10.262 0 0-.835.056-1.245.121-1.584.255-2.055.684-2.055 2.634v15.382c0 2.097 1.306 2.222 3.15 2.326 4.497.255 7.11-3.74 7.11-10.201 0-6.465-2.596-10.262-6.96-10.262m-23.136.225c-4.035 0-6.53 3.849-6.53 10.228 0 6.236 2.457 10.011 6.603 10.011 4.031 0 6.561-3.923 6.561-10.08 0-6.236-2.565-10.159-6.634-10.159m-24.076 0c-4.033 0-6.525 3.849-6.525 10.228 0 6.236 2.452 10.011 6.6 10.011 4.034 0 6.564-3.923 6.564-10.08 0-6.236-2.569-10.159-6.639-10.159m3.297 36.15a179 179 0 0 1-1.073-2.215c-.1-.208-.35-.22-.441.009-.104.255-.995 2.046-1.055 2.175-.1.212.012.351.216.351h2.131c.157 0 .312-.139.222-.32m-3.297-36.15c-4.033 0-6.525 3.849-6.525 10.228 0 6.236 2.452 10.011 6.6 10.011 4.034 0 6.564-3.922 6.564-10.08 0-6.236-2.569-10.159-6.639-10.159m24.076 0c-4.035 0-6.53 3.849-6.53 10.228 0 6.236 2.457 10.011 6.603 10.011 4.031 0 6.561-3.922 6.561-10.08 0-6.236-2.565-10.159-6.634-10.159m23.136-.225s-.835.056-1.245.121c-1.583.255-2.055.684-2.055 2.634v15.382c0 2.098 1.307 2.223 3.15 2.326 4.497.255 7.11-3.74 7.11-10.2 0-6.466-2.596-10.263-6.96-10.263 0 0-.835.057-1.245.122-1.583.255-2.055.683-2.055 2.634v15.382c0 2.097 1.307 2.222 3.15 2.326 4.497.255 7.11-3.74 7.11-10.201 0-6.465-2.596-10.262-6.96-10.262m-23.135.225c-4.035 0-6.532 3.849-6.532 10.228 0 6.236 2.458 10.01 6.604 10.01 4.031 0 6.561-3.922 6.561-10.08 0-6.235-2.565-10.158-6.633-10.158m-24.076 0c-4.034 0-6.525 3.849-6.525 10.228 0 6.236 2.45 10.01 6.598 10.01 4.035 0 6.565-3.922 6.565-10.08 0-6.235-2.568-10.158-6.638-10.158m3.296 36.15a179 179 0 0 1-1.073-2.215c-.1-.208-.35-.22-.441.009-.104.255-.995 2.046-1.055 2.175-.1.212.012.351.216.351h2.131c.157 0 .312-.139.222-.32a179 179 0 0 1-1.073-2.215c-.1-.208-.35-.22-.441.009-.104.255-.995 2.046-1.055 2.175-.1.212.012.351.216.351h2.131c.157 0 .312-.139.222-.32m-3.297-36.15c-4.033 0-6.525 3.848-6.525 10.227 0 6.236 2.452 10.011 6.6 10.011 4.034 0 6.564-3.922 6.564-10.08 0-6.236-2.569-10.159-6.639-10.159m17.174 32.34h-2.716c-.281 0-.575.099-.575.449v1.981c0 .311.294.493.575.493h2.716c.913 0 1.657-.48 1.657-1.462s-.744-1.46-1.657-1.46m6.903-32.34c-4.035 0-6.531 3.848-6.531 10.227 0 6.236 2.457 10.011 6.604 10.011 4.03 0 6.56-3.922 6.56-10.08 0-6.236-2.564-10.159-6.633-10.159m23.136-.225s-.835.056-1.245.122c-1.584.255-2.055.683-2.055 2.633v15.382c0 2.098 1.306 2.223 3.149 2.327 4.497.255 7.11-3.74 7.11-10.201 0-6.465-2.595-10.262-6.959-10.262 0 0-.835.056-1.245.12-1.584.256-2.055.685-2.055 2.635v15.382c0 2.097 1.306 2.222 3.149 2.326 4.497.255 7.11-3.74 7.11-10.201 0-6.465-2.595-10.262-6.959-10.262m-23.136.225c-4.035 0-6.531 3.849-6.531 10.228 0 6.236 2.457 10.01 6.604 10.01 4.03 0 6.56-3.922 6.56-10.08 0-6.235-2.564-10.158-6.633-10.158m-24.076 0c-4.034 0-6.525 3.849-6.525 10.228 0 6.236 2.451 10.01 6.599 10.01 4.035 0 6.565-3.922 6.565-10.08 0-6.235-2.569-10.158-6.639-10.158m17.174 32.34h-2.716c-.281 0-.575.098-.575.449v1.98c0 .312.294.493.575.493h2.716c.913 0 1.656-.48 1.656-1.461s-.743-1.461-1.656-1.461m-13.878 3.81a179 179 0 0 1-1.072-2.215c-.1-.208-.35-.22-.442.009-.103.255-.995 2.046-1.055 2.175-.1.212.013.351.217.351h2.13c.157 0 .312-.139.222-.32a179 179 0 0 1-1.072-2.215c-.1-.207-.35-.22-.442.01-.103.254-.995 2.045-1.055 2.174-.1.213.013.351.217.351h2.13c.157 0 .312-.138.222-.32m-3.296-36.15c-4.034 0-6.525 3.848-6.525 10.227 0 6.237 2.451 10.011 6.599 10.011 4.035 0 6.565-3.922 6.565-10.08 0-6.236-2.57-10.159-6.64-10.159m17.175 32.34h-2.716c-.282 0-.575.099-.575.45v1.98c0 .312.293.493.575.493h2.716c.912 0 1.656-.48 1.656-1.461s-.744-1.462-1.656-1.462m6.902-32.34c-4.035 0-6.53 3.85-6.53 10.228 0 6.237 2.457 10.011 6.603 10.011 4.031 0 6.561-3.922 6.561-10.08 0-6.236-2.565-10.159-6.634-10.159m23.136-.225s-.835.057-1.245.122c-1.583.255-2.055.683-2.055 2.633v15.382c0 2.098 1.307 2.223 3.15 2.327 4.497.255 7.11-3.74 7.11-10.201 0-6.465-2.596-10.262-6.96-10.262 0 0-.835.056-1.245.12-1.583.256-2.055.685-2.055 2.635v15.382c0 2.097 1.307 2.222 3.15 2.326 4.497.255 7.11-3.74 7.11-10.201 0-6.465-2.596-10.262-6.96-10.262m-23.135.225c-4.035 0-6.532 3.849-6.532 10.228 0 6.236 2.458 10.01 6.604 10.01 4.031 0 6.561-3.922 6.561-10.08 0-6.235-2.565-10.158-6.633-10.158m-24.076 0c-4.034 0-6.525 3.849-6.525 10.228 0 6.236 2.45 10.01 6.598 10.01 4.035 0 6.565-3.922 6.565-10.08 0-6.235-2.568-10.158-6.638-10.158m17.174 32.34h-2.717c-.28 0-.575.099-.575.449v1.98c0 .312.294.493.575.493h2.717c.912 0 1.656-.48 1.656-1.46s-.744-1.462-1.656-1.462m-13.878 3.81a179 179 0 0 1-1.073-2.215c-.1-.208-.35-.22-.441.009-.104.255-.995 2.046-1.055 2.175-.1.212.012.351.216.351h2.131c.156 0 .311-.139.221-.32m74.755-14.017c0-.255-.255-.316-.506-.316h-.345v.627h.259c.316 0 .592-.017.592-.31m0 1.564-.64-.904h-.216v.904h-.381v-2.231h.839c.523 0 .761.207.761.666 0 .445-.246.618-.57.653l.647.912zm-.514-2.595c-.862 0-1.502.645-1.502 1.535 0 .891.64 1.531 1.502 1.531.864 0 1.5-.64 1.5-1.53s-.635-1.536-1.5-1.536m-75.318 12.831c-.1-.207-.35-.22-.442.01-.103.254-.995 2.045-1.055 2.174-.1.213.013.351.217.351h2.13c.157 0 .312-.138.222-.32a179 179 0 0 1-1.073-2.215m-2.223-33.935c-4.034 0-6.525 3.85-6.525 10.228 0 6.237 2.45 10.011 6.598 10.011 4.035 0 6.565-3.922 6.565-10.08 0-6.236-2.568-10.159-6.638-10.159m17.174 32.34h-2.717c-.28 0-.575.1-.575.45v1.98c0 .312.294.493.575.493h2.717c.912 0 1.656-.48 1.656-1.461s-.744-1.462-1.656-1.462m6.902-32.34c-4.035 0-6.531 3.85-6.531 10.228 0 6.237 2.457 10.011 6.604 10.011 4.031 0 6.561-3.922 6.561-10.08 0-6.236-2.565-10.159-6.634-10.159m30.095 10.038c0-6.465-2.595-10.262-6.959-10.262 0 0-.835.057-1.245.122-1.583.255-2.055.683-2.055 2.633V92c0 2.098 1.307 2.223 3.15 2.327 4.497.255 7.11-3.74 7.11-10.201m25.32-17.8c-.147.673-.567.92-1.307.92l-.937.005h-14.398c-1.237 0-1.657-.246-1.657-1.064 0-.54.42-.986.913-.986h.744c.255 0 .51-.225.588-.471.113-.3.143-.48.143-1.47V46.843c0-.952-.03-1.143-.143-1.44-.077-.325-.372-.545-.588-.545h-.744c-.493 0-.943-.48-.943-1.025 0-.814.45-1.078 1.687-1.078h14.656c.74 0 1.155.248 1.306.921l.519 2.553c.198.942-.134 1.449-.804 1.449-.355 0-.696-.092-.944-.572a5.3 5.3 0 0 1-.362-.79c-.36-.945-1.1-1.06-2.808-1.06h-3.459c-2.002 0-2.227.263-2.227 2.213v4.36c0 .821.116 1.18.337 1.327.169.117.441.143 1.493.143h1.707c1.54 0 1.76-.113 1.873-.848l.026-.225c.113-.622.441-.916.995-.916.769 0 1.025.436 1.025 1.725v3.084c0 1.284-.256 1.725-1.025 1.725-.554 0-.882-.332-.995-.955l-.039-.242c-.108-.735-.328-.844-1.872-.844h-1.695c-1.051 0-1.324.026-1.493.142-.22.148-.337.503-.337 1.33v4.652c0 1.942.116 2.352.696 2.577.471.178.981.255 2.184.255l3.65-.009c1.31 0 2.236-.41 2.69-1.361.207-.433.272-.598.316-.671.246-.48.635-.692.994-.692.666 0 .995.507.8 1.45l-.566 2.85zm-1.95 32.314a1.906 1.906 0 0 1-1.908-1.913c0-1.064.847-1.915 1.907-1.915 1.055 0 1.908.851 1.908 1.915a1.91 1.91 0 0 1-1.908 1.913m-8.55-1.657c-1.354 0-2.806-.19-3.854-.52-.527-.142-.587-.18-.795-.18-.31 0-.467.073-.782.363-.346.264-.528.337-.853.337-.613 0-.916-.337-1.132-1.216l-.926-3.67a3 3 0 0 1-.095-.736c0-.652.506-1.146 1.159-1.146.38 0 .696.195.92.494l.528.726c1.271 1.795 3.326 2.906 5.424 2.906 2.383 0 4.009-1.332 4.009-3.274 0-.995-.411-1.872-1.194-2.755-.795-.877-1.781-1.686-3.892-3.152-3.477-2.435-3.802-2.656-4.943-3.97-.925-1.073-1.397-2.388-1.397-3.854 0-3.559 2.707-5.911 6.75-5.911 1.038 0 2.098.098 3.167.329.111.038.41.107.929.225.169.033.36.072.502.072.243 0 .523-.12.843-.332.364-.264.48-.294.775-.294.54 0 .886.367 1.034 1.025l.877 3.97c.065.172.065.394.065.51 0 .48-.429.877-1.055.877-.394 0-.636-.146-.974-.617-.826-1.25-.98-1.394-1.747-1.985a5.7 5.7 0 0 0-3.45-1.181c-1.696 0-2.794.965-2.794 2.47 0 .54.095 1.097.398 1.503.37.554.96 1.134 1.686 1.688.453.324 1.034.744 1.816 1.289 2.897 2.018 3.849 2.755 5.03 3.96 1.241 1.285 1.985 3.118 1.985 5.005 0 4.242-3.166 7.045-8.014 7.045m-9.267 9.46h-2.137c-.293 0-.506.097-.506.45l.013 6.388c0 .45-.32.503-.822.503-.483 0-.808-.049-.808-.485v-6.396c0-.312-.113-.46-.502-.46h-2.162c-.35 0-.45-.335-.45-.617 0-.31-.026-.912.437-.912h6.902c.31 0 .518.172.518.744 0 .506-.133.786-.483.786m-17.75 1.976h3.05c.367 0 .463.321.463.788 0 .406-.087.76-.429.76H92c-.242 0-.462.17-.462.45v1.293c0 .312.169.46.419.46h5.228c.347 0 .468.228.468.8 0 .41-.095.748-.463.748h-6.733c-.39 0-.55-.186-.55-.649v-7.586c0-.345.138-.588.54-.588h6.756c.402 0 .475.268.475.748 0 .446-.06.8-.496.8H91.9c-.21 0-.362.165-.362.394v1.193c0 .252.181.39.419.39m-5.548-13.126c0-.554.368-1.02.873-1.02h.748c.252 0 .502-.195.623-.48.074-.264.112-.485.112-1.445V76.008c0-.956-.038-1.18-.112-1.445-.121-.28-.371-.48-.623-.48h-.748c-.505 0-.873-.466-.873-1.02 0-.8.553-.912 1.621-1.072 1.073-.157 4.065-.567 8.645-.567 4.575 0 7.417.994 9.665 3.27 2.16 2.167 3.33 5.504 3.33 9.47 0 4.442-1.496 8.113-4.22 10.28-2.115 1.713-4.77 2.492-8.775 2.492-4.58 0-7.572-.411-8.645-.568-1.068-.155-1.62-.267-1.62-1.072M74.017 96.97c-5.92 0-10.158-3.343-11.52-8.732a.6.6 0 0 1-.038-.121c-.122-.605-.667-.649-.797-.004 0 .021-.017.043-.026.065-1.375 5.466-5.635 8.791-11.694 8.791-7.261 0-11.988-5.025-11.988-12.689 0-7.843 4.692-12.835 12.061-12.835 6.05 0 10.354 3.374 11.672 8.874.139.631.675.584.791-.016 0-.01 0-.018.013-.023 1.345-5.5 5.579-8.835 11.602-8.835 7.335 0 12.1 4.952 12.1 12.654 0 7.845-4.73 12.87-12.174 12.87m10.164 16.82c-.744 0-.948-.117-1.138-.347l-2.824-3.014c-.385-.333-.77-.385-1.297-.385-.295 0-.524.303-.524.653v2.569c0 .488-.419.52-.877.52-.485 0-.74-.135-.74-.524v-7.841c0-.463.29-.54.86-.54.45 0 .757.103.757.527v2.366c0 .38.174.567.411.567.688 0 .835-.148 1.09-.368.285-.242 3.183-2.902 3.183-2.902.364-.312.731-.307 1.081.03.29.277.419.588.095.908a419 419 0 0 1-2.767 2.522c-.317.272-.238.527-.022.764 0 0 3.053 3.365 3.373 3.712.48.522.039.782-.661.782m-15.518-2.846c.07.105 1.306 1.899 1.487 2.168.273.406.026.675-.816.675-.471 0-.788-.083-.991-.385l-1.37-2.13c-.157-.237-.382-.388-.69-.388h-1.958c-.237 0-.462.195-.462.433l.012 2.123c0 .42-.812.35-1.08.35-.351 0-.545-.1-.545-.492l.013-8.075c0-.211.18-.338.376-.338h4.645c1.794 0 3.144 1.155 3.144 3.007 0 1.6-1.155 2.123-1.618 2.516-.229.2-.285.337-.147.536m-13.055 2.846c-.27 0-.675-.044-.802-.337l-.57-1.18a.47.47 0 0 0-.41-.282H50.19c-.23 0-.437.173-.567.498l-.505.964c-.112.28-.662.325-.917.325-.225 0-.964-.027-.731-.52l3.862-8.013c.108-.234.311-.411.675-.411.363 0 .561.121.683.38 0 0 3.688 7.862 3.792 8.092.191.41-.605.484-.872.484m-13.982 0c-.225 0-.644-.125-.644-.42l-.623-4.709c-.04-.195-.112-.28-.268-.28-.125 0-.19.06-.277.168l-2.115 2.707c-.108.147-.25.238-.42.238-.24 0-.346-.061-.483-.264l-1.947-2.625a.33.33 0 0 0-.28-.139c-.156 0-.235.14-.256.32l-.61 4.554c-.056.376-.519.45-.9.45-.264 0-.712-.125-.712-.462l.895-7.677c.095-.458.193-.722.856-.722.169 0 .441.047.652.376l2.418 3.399c.13.186.277.343.437.338.16-.004.324-.17.463-.35l2.551-3.47c.156-.237.394-.337.675-.337.306 0 .531.07.661.585l.895 7.87c.044.45-.66.45-.968.45M26.419 92.43c0 .99 0 1.168.087 1.426a.94.94 0 0 0 .782.485h.83c.575 0 .974.472.974 1.025 0 .81-.45 1.064-1.804 1.064h-6.755c-1.253 0-1.695-.255-1.695-1.064 0-.553.442-1.025.947-1.025h.748c.25 0 .498-.19.62-.485.077-.258.115-.436.115-1.426V76.012c0-.951-.03-1.141-.147-1.435-.078-.325-.371-.55-.588-.55h-.743c-.494 0-.943-.475-.943-1.024 0-.808.449-1.072 1.686-1.072h15.915c.739 0 1.16.246 1.305.92l.52 2.552c.199.938-.135 1.45-.801 1.45-.359 0-.7-.096-.946-.576a6 6 0 0 1-.364-.787c-.359-.943-1.099-1.064-2.806-1.064h-4.714c-2.006 0-2.231.267-2.231 2.214v4.364c0 .82.116 1.176.341 1.327.169.118.436.143 1.493.143h3.035c1.54 0 1.76-.113 1.872-.848l.026-.229c.113-.622.442-.917.99-.917.775 0 1.03.441 1.03 1.726v3.087c0 1.285-.255 1.725-1.03 1.725-.548 0-.877-.332-.99-.955l-.038-.242c-.11-.735-.33-.848-1.873-.848h-3.022c-1.057 0-1.324.027-1.493.143-.225.151-.341.506-.341 1.332l.012 5.982zM14.337 46.614c-.55-1.509-.723-1.69-1.9-1.945-.782-.144-1.024-.399-1.024-.991 0-.623.39-.951 1.232-.951h7.581c.835 0 1.207.328 1.207.99 0 .618-.372.87-1.323.952-.809.073-1.137.333-1.137.916 0 .252.03.515.133.818l.29.839s4.053 11.478 4.693 13.324c.107.295.441.281.554-.048.712-2.045 2.65-7.671 2.72-7.9.198-.649.285-1.332.05-2.081-.08-.264-1.322-3.922-1.322-3.922-.138-.398-.22-.692-.303-.843-.217-.536-.514-.731-1.362-.956-.757-.186-1.047-.436-1.047-.981 0-.705.424-1.108 1.28-1.108h7.205c.835 0 1.241.329 1.241.99 0 .584-.371.87-1.189.986-.977.113-1.24.338-1.24.995 0 .333.073.662.375 1.544 0 0 3.555 11.25 4.118 13.018.107.333.424.259.514-.035.553-1.799 4.07-13.61 4.07-13.61a3.3 3.3 0 0 0 .142-.881c0-.55-.394-.844-1.285-.956-.809-.074-1.18-.442-1.18-1.025 0-.735.42-1.025 1.396-1.025H51.55c1.212 0 1.613.246 1.613 1.05 0 .602-.401 1.038-.908 1.038h-.705c-.302 0-.588.225-.7.468-.07.272-.1.527-.1 1.444v4.736c0 1.695.147 1.837 1.505 1.837h4.987c.73 0 1.107-.116 1.292-.328.169-.225.169-.368.169-1.73v-4.515c0-.955 0-1.172-.09-1.444-.13-.282-.42-.468-.671-.468h-.7c-.554 0-1-.436-1-1.037 0-.805.446-1.051 1.7-1.051h6.673c1.25 0 1.695.246 1.695 1.05 0 .602-.446 1.038-.947 1.038h-.748c-.25 0-.545.225-.623.468-.104.272-.13.527-.13 1.444v16.486c0 .955.026 1.17.13 1.47.078.255.372.437.623.437h.748c.545 0 .947.48.947 1.024 0 .814-.402 1.065-1.695 1.065h-6.673c-1.254 0-1.652-.251-1.652-1.065 0-.544.445-1.024.952-1.024h.7c.25 0 .54-.182.67-.437.09-.3.09-.515.09-1.47v-5.36c0-1.362 0-1.504-.168-1.724-.185-.217-.562-.334-1.292-.334h-4.987c-1.358 0-1.505.144-1.505 1.839v5.579c0 .955.03 1.17.1 1.47a.78.78 0 0 0 .7.437h.705c.507 0 .883.48.883 1.068 0 .77-.42 1.02-1.588 1.02h-6.69c-1.232 0-1.678-.25-1.678-1.064 0-.544.446-1.024.95-1.024h.728c.26 0 .562-.183.632-.438.112-.298.112-.488.112-1.47V46.727c0-1.872-.879-1.997-1.522-1.91-.65.09-1.03.502-1.428 1.798l-5.851 18.84c-.528 1.794-1.025 2.308-2.123 2.308-1.095 0-1.652-.475-2.093-1.834l-3.123-9.336c-.104-.299-.415-.308-.501-.021-.083.288-3.335 9.357-3.335 9.357-.354.879-.445 1.134-.744 1.433-.289.216-.77.4-1.25.4-1.064 0-1.586-.44-2.092-1.833l-7.205-19.314zM63.062 35.5c1.227-4.559 5.66-9.16 10.56-7.754 4.156 1.185 3.862 4.62 6.885 5.695 1.085.385.998 1.475.052 1.657-1.596.302-3.75-.857-5.359-2.314-1.88-1.708-4.939-1.634-6.43-.498-.653.498-.32.974.277.84 1.383-.298 3.727-.376 5.53 1.648 1.773 1.989 5.077 3.766 8 1.859.806-.523 1.328-1.604 2.146-1.37.874.246.886 1.517-.259 2.996-2.704 3.486-5.475 3.071-8.446 5.981-2.968 2.91-3.568 6.219-3.568 10.422 0 6.518 2.564 10.465 6.898 10.465 4.216 0 6.862-4.099 6.862-10.542 0-5.311-1.257-8.745-4.41-9.956-1.527-.566-1.267-2.058.7-2.291 1.622-.19 3.21.362 4.952 1.647 3.006 2.214 4.506 5.734 4.506 10.45 0 8.203-4.943 13.453-12.722 13.453-7.594 0-12.538-5.25-12.538-13.264 0-5.155 1.937-9.125 5.289-11.365 1.4-1.047 3.77-2.254 6.093-3.04.48-.165.477-1.017-.376-.852-1.016.203-2.885.35-4.429-.273-3.463-1.366-4.47-3.81-8.548-2.059-1.23.528-2.02-.22-1.665-1.535m30.99 7.257h6.78c1.323 0 1.773.263 1.773 1.077 0 .584-.45 1.025-.972 1.025h-.8c-.338 0-.667.181-.77.48-.109.246-.109.471-.109 1.428v15.416c0 1.613.07 1.99.502 2.24.377.26.938.328 2.413.328h2.067c1.31 0 2.237-.41 2.69-1.36.208-.438.273-.598.315-.672.248-.48.637-.696.992-.696.67 0 .998.51.803 1.453l-.566 2.85c-.147.674-.566.922-1.306.922H94.052c-1.224 0-1.626-.243-1.626-1.06 0-.54.402-.987.916-.987h.71c.243 0 .54-.225.614-.47.109-.273.142-.45.142-1.367V46.766c0-.991-.033-1.138-.142-1.428a.66.66 0 0 0-.614-.48h-.71c-.552 0-.999-.44-.999-1.025 0-.813.447-1.077 1.71-1.077M71.14-4.538c-41.798 0-75.68 33.884-75.68 75.68 0 41.799 33.883 75.682 75.68 75.682 41.803 0 75.681-33.884 75.681-75.681 0-41.798-33.879-75.681-75.68-75.681m56.894 100.76c0-.255-.255-.316-.506-.316h-.345v.627h.259c.316 0 .592-.017.592-.311m0 1.565-.64-.904h-.216v.904h-.381v-2.231h.838c.524 0 .762.207.762.666 0 .445-.247.617-.57.652l.647.913zm-.515-2.595c-.861 0-1.501.645-1.501 1.535 0 .891.64 1.531 1.501 1.531.865 0 1.5-.64 1.5-1.531s-.635-1.535-1.5-1.535m-74.245 15.046c-.061-.113-.965-1.981-1.072-2.215-.1-.208-.35-.22-.442.009-.103.255-.995 2.046-1.055 2.175-.1.212.013.351.217.351h2.13c.157 0 .312-.139.222-.32m13.878-3.81h-2.716c-.281 0-.575.099-.575.449v1.981c0 .311.294.493.575.493h2.716c.913 0 1.656-.48 1.656-1.462s-.743-1.46-1.656-1.46M49.98 74.088c-4.034 0-6.525 3.848-6.525 10.227 0 6.236 2.451 10.011 6.599 10.011 4.035 0 6.565-3.922 6.565-10.08 0-6.236-2.569-10.159-6.639-10.159m24.076 0c-4.035 0-6.531 3.85-6.531 10.228 0 6.236 2.457 10.011 6.604 10.011 4.03 0 6.56-3.922 6.56-10.08 0-6.236-2.564-10.159-6.633-10.159m23.136-.225s-.835.056-1.245.122c-1.584.255-2.055.683-2.055 2.633V92c0 2.098 1.306 2.223 3.149 2.327 4.497.255 7.11-3.74 7.11-10.201 0-6.465-2.595-10.262-6.959-10.262m30.84 22.359c0-.255-.256-.317-.507-.317h-.345v.628h.259c.316 0 .592-.018.592-.311m0 1.565-.64-.904h-.216v.904h-.381v-2.232h.838c.524 0 .762.208.762.667 0 .445-.247.617-.57.652l.647.913zm-.515-2.595c-.861 0-1.501.645-1.501 1.535s.64 1.53 1.501 1.53c.865 0 1.5-.64 1.5-1.53s-.635-1.535-1.5-1.535m-30.329-21.33s-.835.057-1.245.122c-1.584.255-2.055.684-2.055 2.634V92c0 2.097 1.306 2.222 3.149 2.326 4.498.255 7.11-3.74 7.11-10.201 0-6.465-2.595-10.262-6.959-10.262m-23.136.225c-4.035 0-6.53 3.849-6.53 10.228 0 6.236 2.457 10.01 6.603 10.01 4.031 0 6.561-3.922 6.561-10.08 0-6.235-2.565-10.158-6.634-10.158m-6.902 32.34h-2.716c-.282 0-.575.098-.575.449v1.98c0 .312.293.493.575.493h2.716c.912 0 1.656-.48 1.656-1.461s-.744-1.461-1.656-1.461m-17.174-32.34c-4.034 0-6.525 3.849-6.525 10.228 0 6.236 2.451 10.01 6.599 10.01 4.035 0 6.565-3.922 6.565-10.08 0-6.235-2.57-10.158-6.64-10.158m3.297 36.15c-.061-.113-.965-1.981-1.072-2.215-.1-.208-.35-.22-.442.009-.103.255-.995 2.046-1.055 2.175-.1.212.013.351.217.351h2.13c.157 0 .312-.139.222-.32-.061-.112-.965-1.981-1.073-2.215-.1-.207-.35-.22-.44.01-.105.254-.996 2.045-1.056 2.174-.1.213.013.351.216.351h2.132c.156 0 .31-.138.22-.32m13.879-3.81h-2.716c-.282 0-.575.099-.575.45v1.98c0 .312.293.493.575.493h2.716c.912 0 1.656-.48 1.656-1.461s-.744-1.462-1.656-1.462M49.974 74.09c-4.034 0-6.525 3.848-6.525 10.227 0 6.237 2.451 10.011 6.599 10.011 4.035 0 6.565-3.922 6.565-10.08 0-6.236-2.57-10.159-6.64-10.159m24.077 0c-4.035 0-6.531 3.85-6.531 10.228 0 6.237 2.457 10.011 6.604 10.011 4.03 0 6.56-3.922 6.56-10.08 0-6.236-2.564-10.159-6.633-10.159m23.136-.225s-.835.057-1.245.122c-1.584.255-2.055.683-2.055 2.633V92c0 2.098 1.306 2.223 3.149 2.327 4.497.255 7.11-3.74 7.11-10.201 0-6.465-2.595-10.262-6.959-10.262 0 0-.835.056-1.245.12-1.584.256-2.055.685-2.055 2.635V92c0 2.097 1.306 2.222 3.149 2.326 4.497.255 7.11-3.74 7.11-10.201 0-6.465-2.595-10.262-6.959-10.262m-23.136.225c-4.035 0-6.531 3.849-6.531 10.228 0 6.236 2.457 10.01 6.604 10.01 4.03 0 6.56-3.922 6.56-10.08 0-6.235-2.564-10.158-6.633-10.158m-6.902 32.34H64.43c-.28 0-.575.099-.575.449v1.98c0 .312.294.493.575.493h2.717c.912 0 1.656-.48 1.656-1.46s-.744-1.462-1.656-1.462m-17.174-32.34c-4.034 0-6.525 3.849-6.525 10.228 0 6.236 2.45 10.01 6.598 10.01 4.035 0 6.565-3.922 6.565-10.08 0-6.235-2.568-10.158-6.638-10.158m3.296 36.15c-.061-.113-.965-1.981-1.073-2.215-.1-.208-.35-.22-.44.009-.105.255-.996 2.046-1.056 2.175-.1.212.013.351.216.351h2.132c.156 0 .31-.139.22-.32-.06-.112-.964-1.981-1.072-2.215-.1-.207-.35-.22-.441.01-.104.254-.995 2.045-1.055 2.174-.1.213.013.351.216.351h2.131c.157 0 .312-.138.222-.32m13.878-3.81h-2.716c-.282 0-.575.1-.575.45v1.98c0 .312.293.493.575.493h2.716c.912 0 1.656-.48 1.656-1.461s-.744-1.462-1.656-1.462M49.974 74.09c-4.034 0-6.525 3.848-6.525 10.227 0 6.237 2.45 10.011 6.599 10.011 4.035 0 6.565-3.922 6.565-10.08 0-6.236-2.57-10.159-6.64-10.159m24.077 0c-4.035 0-6.531 3.85-6.531 10.228 0 6.237 2.457 10.011 6.603 10.011 4.032 0 6.562-3.922 6.562-10.08 0-6.236-2.565-10.159-6.634-10.159m23.136-.225s-.835.057-1.245.122c-1.584.255-2.055.683-2.055 2.634V92c0 2.097 1.306 2.222 3.149 2.326 4.497.255 7.11-3.74 7.11-10.201 0-6.465-2.595-10.262-6.96-10.262 0 0-.834.056-1.244.121-1.584.255-2.055.684-2.055 2.634V92c0 2.097 1.306 2.222 3.149 2.326 4.497.255 7.11-3.74 7.11-10.201 0-6.465-2.595-10.262-6.96-10.262m-23.135.225c-4.035 0-6.531 3.849-6.531 10.228 0 6.236 2.457 10.011 6.604 10.011 4.03 0 6.56-3.923 6.56-10.08 0-6.236-2.564-10.159-6.633-10.159m-6.903 32.34h-2.716c-.281 0-.575.099-.575.449v1.98c0 .312.294.493.575.493h2.716c.913 0 1.657-.48 1.657-1.46s-.744-1.462-1.657-1.462m-17.174-32.34c-4.033 0-6.525 3.849-6.525 10.228 0 6.236 2.452 10.011 6.6 10.011 4.034 0 6.564-3.922 6.564-10.08 0-6.236-2.569-10.159-6.639-10.159m3.297 36.15c-.062-.112-.965-1.981-1.073-2.215-.1-.207-.35-.22-.441.009-.104.255-.995 2.046-1.055 2.175-.1.213.012.351.216.351h2.131c.157 0 .312-.138.222-.32m-3.297-36.15c-4.033 0-6.525 3.85-6.525 10.228 0 6.236 2.452 10.011 6.6 10.011 4.034 0 6.564-3.922 6.564-10.08 0-6.236-2.569-10.159-6.639-10.159m24.076 0c-4.035 0-6.53 3.85-6.53 10.228 0 6.236 2.457 10.011 6.603 10.011 4.031 0 6.561-3.922 6.561-10.08 0-6.236-2.565-10.159-6.634-10.159m23.136-.225s-.835.056-1.245.122c-1.583.255-2.055.683-2.055 2.633v15.382c0 2.098 1.307 2.223 3.15 2.327 4.497.255 7.11-3.74 7.11-10.201 0-6.465-2.596-10.262-6.96-10.262 0 0-.835.056-1.245.12-1.583.256-2.055.685-2.055 2.635v15.382c0 2.097 1.307 2.222 3.15 2.326 4.497.255 7.11-3.74 7.11-10.201 0-6.465-2.596-10.262-6.96-10.262m-23.135.225c-4.035 0-6.532 3.849-6.532 10.228 0 6.236 2.458 10.01 6.604 10.01 4.031 0 6.561-3.922 6.561-10.08 0-6.235-2.565-10.158-6.633-10.158m-24.076 0c-4.034 0-6.525 3.849-6.525 10.228 0 6.236 2.45 10.01 6.598 10.01 4.035 0 6.565-3.922 6.565-10.08 0-6.235-2.568-10.158-6.638-10.158-4.034 0-6.525 3.849-6.525 10.228 0 6.236 2.45 10.01 6.598 10.01 4.035 0 6.565-3.922 6.565-10.08 0-6.235-2.568-10.158-6.638-10.158m24.076 0c-4.035 0-6.532 3.849-6.532 10.228 0 6.236 2.458 10.01 6.604 10.01 4.031 0 6.561-3.922 6.561-10.08 0-6.235-2.565-10.158-6.633-10.158m23.136-.225s-.835.056-1.245.121c-1.584.255-2.055.684-2.055 2.634v15.382c0 2.097 1.306 2.222 3.148 2.326 4.498.255 7.11-3.74 7.11-10.201 0-6.465-2.595-10.262-6.958-10.262 0 0-.835.056-1.245.121-1.584.255-2.055.684-2.055 2.634v15.382c0 2.098 1.306 2.223 3.148 2.326 4.498.255 7.11-3.74 7.11-10.2 0-6.466-2.595-10.263-6.958-10.263m-23.136.225c-4.035 0-6.531 3.85-6.531 10.228 0 6.236 2.457 10.011 6.603 10.011 4.032 0 6.562-3.922 6.562-10.08 0-6.236-2.565-10.159-6.634-10.159m-24.076 0c-4.034 0-6.525 3.85-6.525 10.228 0 6.236 2.451 10.011 6.599 10.011 4.035 0 6.565-3.922 6.565-10.08 0-6.236-2.57-10.159-6.64-10.159"/></svg>
