<svg xmlns="http://www.w3.org/2000/svg" xml:space="preserve" width="388" height="86" viewBox="0 0 388 86"><path fill="#f90" fill-rule="evenodd" d="M134.49 69.526c-12.391 9.145-30.354 14.007-45.822 14.007-21.679 0-41.201-8.014-55.973-21.353-1.16-1.048-.125-2.479 1.269-1.667 15.938 9.274 35.649 14.86 56.006 14.86 13.732 0 28.828-2.851 42.719-8.742 2.094-.887 3.851 1.382 1.801 2.895" clip-rule="evenodd"/><path fill="#f90" fill-rule="evenodd" d="M139.646 63.641c-1.585-2.029-10.475-.962-14.47-.483-1.21.146-1.398-.912-.308-1.678 7.093-4.981 18.714-3.543 20.065-1.875 1.361 1.683-.357 13.334-7.004 18.894-1.022.855-1.995.399-1.542-.73 1.497-3.736 4.845-12.098 3.259-14.128" clip-rule="evenodd"/><path fill-rule="evenodd" d="M125.458 26.289v-4.841c.004-.737.558-1.228 1.228-1.226l21.695-.002c.693 0 1.25.504 1.25 1.221v4.152c-.006.697-.593 1.605-1.633 3.047L136.76 44.685c4.171-.098 8.585.527 12.375 2.658.854.479 1.083 1.19 1.151 1.888v5.166c0 .711-.78 1.535-1.599 1.105-6.676-3.497-15.538-3.879-22.922.044-.754.401-1.543-.41-1.543-1.123v-4.909c0-.786.015-2.13.808-3.327l13.02-18.679-11.336-.001c-.696.001-1.252-.493-1.256-1.218M46.321 56.521H39.72c-.628-.042-1.129-.513-1.181-1.116l.005-33.874c0-.678.569-1.219 1.273-1.219l6.147-.002c.643.033 1.159.519 1.199 1.138v4.422h.124c1.602-4.277 4.621-6.273 8.686-6.273 4.128 0 6.716 1.997 8.564 6.273 1.603-4.277 5.237-6.273 9.119-6.273 2.772 0 5.792 1.141 7.64 3.707 2.094 2.852 1.665 6.985 1.665 10.621l-.006 21.378c0 .676-.569 1.219-1.273 1.219H75.09c-.663-.043-1.184-.567-1.184-1.217l-.002-17.958c0-1.424.123-4.989-.186-6.343-.493-2.282-1.971-2.924-3.88-2.924-1.603 0-3.267 1.069-3.945 2.78s-.616 4.562-.616 6.487v17.957c0 .676-.569 1.219-1.272 1.219h-6.593c-.663-.043-1.185-.567-1.185-1.217l-.006-17.958c0-3.778.616-9.337-4.065-9.337-4.745 0-4.56 5.417-4.56 9.337l-.002 17.957c.001.674-.57 1.216-1.273 1.216M168.307 19.597c9.796 0 15.093 8.413 15.093 19.104 0 10.335-5.852 18.534-15.093 18.534-9.611 0-14.849-8.413-14.849-18.891 0-10.55 5.299-18.747 14.849-18.747m.06 6.915c-4.867 0-5.174 6.628-5.174 10.763s-.061 12.973 5.114 12.973c5.115 0 5.36-7.128 5.36-11.475 0-2.851-.123-6.273-.987-8.983-.739-2.352-2.219-3.278-4.313-3.278M196.105 56.521h-6.576c-.661-.043-1.185-.567-1.185-1.217l-.011-33.887c.056-.62.603-1.105 1.268-1.105l6.122-.002c.577.03 1.052.423 1.173.948v5.182h.125c1.849-4.635 4.435-6.844 8.994-6.844 2.957 0 5.854 1.069 7.701 3.993 1.725 2.708 1.725 7.27 1.725 10.549v21.316c-.072.6-.612 1.066-1.265 1.066h-6.615c-.611-.039-1.104-.488-1.175-1.066V37.062c0-3.707.432-9.125-4.128-9.125-1.603 0-3.081 1.069-3.82 2.708-.925 2.068-1.049 4.134-1.049 6.417v18.24c-.01.677-.58 1.219-1.284 1.219M108.164 40.344c0 2.573.061 4.715-1.236 7.002-1.049 1.856-2.717 3-4.568 3-2.531 0-4.013-1.93-4.013-4.787 0-5.621 5.042-6.643 9.818-6.643zm6.653 16.093c-.436.393-1.066.418-1.559.153-2.191-1.821-2.584-2.663-3.783-4.397-3.623 3.69-6.188 4.798-10.882 4.798-5.556 0-9.879-3.43-9.879-10.288 0-5.357 2.902-9 7.039-10.787 3.58-1.572 8.582-1.857 12.411-2.287v-.857c0-1.572.123-3.428-.804-4.786-.803-1.215-2.346-1.715-3.705-1.715-2.517 0-4.754 1.29-5.305 3.963-.114.595-.548 1.184-1.146 1.214l-6.397-.693c-.541-.122-1.141-.555-.986-1.38 1.472-7.76 8.48-10.104 14.76-10.104 3.212 0 7.409.855 9.941 3.286 3.212 3 2.902 7.002 2.902 11.36v10.281c0 3.094 1.285 4.45 2.491 6.116.422.602.516 1.314-.022 1.754a291 291 0 0 0-5.061 4.384zM21.64 40.344c0 2.573.062 4.715-1.234 7.002-1.048 1.856-2.717 3-4.569 3-2.531 0-4.013-1.93-4.013-4.787 0-5.621 5.043-6.643 9.816-6.643zm6.655 16.093c-.436.393-1.067.418-1.559.153-2.193-1.821-2.586-2.663-3.783-4.397-3.624 3.69-6.189 4.798-10.881 4.798-5.557 0-9.879-3.43-9.879-10.288 0-5.357 2.901-9 7.039-10.787 3.581-1.572 8.583-1.857 12.409-2.287v-.857c0-1.572.125-3.428-.801-4.786-.804-1.215-2.347-1.715-3.705-1.715-2.518 0-4.757 1.29-5.305 3.963-.115.595-.548 1.184-1.147 1.214l-6.396-.693c-.542-.123-1.143-.555-.987-1.381 1.47-7.76 8.478-10.104 14.76-10.104 3.211 0 7.41.855 9.941 3.286 3.21 3 2.902 7.002 2.902 11.36v10.281c0 3.094 1.284 4.45 2.49 6.116.421.602.517 1.314-.021 1.754a284 284 0 0 0-5.062 4.384z" clip-rule="evenodd"/><path fill="#f90" d="M246.028 56.535 230.65 37.891h-.075v18.644h-5.53V2.877h5.53v30.467h.075l13.182-12.657h7.196l-15.757 14.627 17.803 21.221zM259.511 13.184a3.88 3.88 0 0 1-3.863-3.865c0-2.123 1.742-3.865 3.863-3.865s3.863 1.742 3.863 3.865a3.88 3.88 0 0 1-3.863 3.865m-2.727 43.351V20.687h5.529v35.848zM293.392 56.535V34.481c0-4.472-.757-9.474-6.212-9.474-4.394 0-8.408 3.107-11.135 5.458v26.071h-5.53V20.687h4.545l.758 4.32c3.938-3.031 7.803-5.229 12.803-5.229 5.15 0 10.302 3.713 10.302 12.657v24.101h-5.531zM323.313 57.293c-9.999 0-18.408-5.835-18.408-18.189 0-11.14 8.029-19.326 18.483-19.326 2.575 0 4.395.227 5.833.606V2.877h5.53v51.839c-2.196 1.289-6.362 2.577-11.438 2.577m5.909-31.755c-1.438-.531-2.727-.909-5.529-.909-7.046 0-13.182 5.533-13.182 14.097 0 8.109 4.47 13.869 13.787 13.869 1.817 0 3.788-.379 4.924-.909zM349.144 57.293c-4.394 0-6.287-2.804-6.287-6.594V2.877h5.53v45.321c0 3.41.833 4.093 2.954 4.093.379 0 .985 0 1.894-.227l.683 4.017c-1.668.833-2.956 1.212-4.774 1.212M362.854 39.559c0 6.821 3.939 12.958 11.666 12.958 3.258 0 6.591-1.287 8.712-2.651l1.742 3.94c-2.651 1.819-7.196 3.486-11.136 3.486-11.438 0-16.894-9.17-16.894-19.402 0-10.383 5.909-18.113 14.545-18.113 9.242 0 14.317 7.352 14.317 18.493v1.289zm8.711-15.082c-5.302 0-8.636 4.699-8.636 10.383h16.894c0-5.002-2.802-10.383-8.258-10.383"/></svg>
