<svg xmlns="http://www.w3.org/2000/svg" width="997.572" height="573.266" viewBox="0 0 263.941 151.677"><path d="M9.023 173.671q-1.344 1.062-.566 3.538.707 2.194 3.326 5.449 10.543 13.02 25.12 21.653t31.206 12.737q16.7 4.175 34.107 4.175 22.29 0 42.457-6.51 20.166-6.44 33.682-18.115 4.74-4.174 4.741-6.652 0-.92-.778-1.84-1.062-1.06-2.548-.707t-4.175 1.769q-12.949 6.793-31.56 10.826-18.538 4.104-38.706 4.104-24.979 0-48.259-6.793-23.28-6.792-41.254-21.228-2.617-2.052-4.246-2.618-1.556-.567-2.547.212" style="fill:#0f141a;fill-opacity:1;fill-rule:nonzero;stroke:none;stroke-width:5.11043167" transform="translate(25.928 -69.546)"/><path d="M166.252 177.213q-1.486 1.415-.778 2.973.495 1.131 1.91 1.273 1.416.212 4.034-.283a65.5 65.5 0 0 1 8.845-1.274q4.6-.282 7.996.142 3.397.495 4.246 1.698 1.274 1.911-.92 8.067-2.123 6.156-5.803 11.959-1.415 2.334-1.698 3.68-.282 1.343.708 2.264.636.636 1.415.636 2.052 0 5.944-3.608 7.005-6.086 9.836-14.436a34 34 0 0 0 1.91-9.057q.354-4.74-1.061-6.793-1.344-1.982-5.944-3.255a33.6 33.6 0 0 0-9.128-1.274q-8.987 0-17.054 4.246-2.97 1.627-4.458 3.042" style="fill:#0f141a;fill-opacity:1;fill-rule:nonzero;stroke:none;stroke-width:5.11043167" transform="translate(25.928 -69.546)"/><path d="M22.63 150.624c1.002 0 1.56-1.002 1.114-1.893l-17.485-34.08 15.814-20.826c.78-1.002.223-2.005-1.002-2.005H7.484c-.891 0-1.56.446-2.116 1.114l-15.815 21.94h-.446V74.67c0-1.114-.78-2.004-1.782-2.004h-11.582c-1.003 0-1.67.89-1.67 2.004v74.062c0 1.114.667 1.893 1.67 1.893h11.582c1.003 0 1.782-.78 1.782-1.893v-11.694l6.794-9.69h.557l11.248 22.164c.334.668 1.114 1.113 1.782 1.113zM35.28 69.546c4.789 0 8.798 3.119 8.798 8.687 0 5.346-4.01 8.576-8.798 8.576-4.678 0-8.687-3.23-8.687-8.576 0-5.568 4.01-8.687 8.687-8.687m-7.462 79.185v-55.24c0-1.002.891-1.67 2.005-1.67H41.07c1.003 0 1.782.668 1.782 1.67v55.24c0 1.114-.78 1.893-1.782 1.893H29.823c-1.114 0-2.005-.78-2.005-1.893M81.764 90.484c10.803 0 17.485 8.91 17.485 23.276v34.971c0 1.114-.668 1.893-1.782 1.893h-11.36c-1.113 0-1.893-.78-1.893-1.893v-33.857c0-6.793-2.896-10.58-8.13-10.58-5.68 0-8.798 4.455-8.798 12.585v31.852c0 1.114-.78 1.893-1.894 1.893h-11.36c-1.113 0-1.781-.78-1.781-1.893V93.602c0-1.113.78-1.782 1.782-1.782h9.466c1.002 0 1.67.669 1.893 1.782l1.448 7.017h.557c2.562-6.571 7.685-10.135 14.367-10.135M106.241 121.222c0-18.599 8.13-30.738 20.158-30.738 6.349 0 11.026 3.007 14.479 9.466h.556V74.67c0-1.115.669-2.005 1.782-2.005h11.36c1.114 0 1.782.89 1.782 2.004v74.062c0 1.114-.668 1.893-1.782 1.893h-9.355c-1.002 0-1.67-.668-2.005-1.893l-1.447-6.794h-.446c-2.561 5.903-8.464 9.912-14.924 9.912-12.028 0-20.158-12.25-20.158-30.627m25.504 18.042c6.348 0 9.912-6.682 9.912-18.042 0-11.694-3.564-18.376-9.912-18.376s-10.023 6.682-10.023 18.376c0 11.583 3.675 18.042 10.023 18.042M167.433 72.665h11.582c1.003 0 1.782.89 1.782 2.004v74.062c0 1.114-.78 1.893-1.782 1.893h-11.582c-1.002 0-1.67-.78-1.67-1.893V74.669c0-1.114.668-2.004 1.67-2.004M213.734 90.484c14.367 0 24.28 12.585 24.28 30.293v2.896c0 1.225-.78 1.893-1.783 1.893h-32.409c.668 9.578 3.898 14.478 9.912 14.478 4.344 0 7.796-2.005 9.021-7.462.223-1.225.891-1.67 2.005-1.448l10.58 2.34c1.114.222 1.67 1.002 1.225 2.227-3.563 10.469-11.805 16.148-22.83 16.148-15.259 0-25.616-12.25-25.616-30.293s10.58-31.072 25.615-31.072m9.021 25.17c-.78-8.799-3.786-13.365-9.02-13.365-5.124 0-8.688 4.79-9.801 13.365z" style="fill:#0f141a;fill-opacity:1;fill-rule:nonzero;stroke:none;stroke-width:.26458332" transform="translate(25.928 -69.546)"/></svg>
