<svg width="512" height="512" viewBox="0 0 512 512" fill="none" xmlns="http://www.w3.org/2000/svg">
<circle cx="256" cy="256" r="256" fill="#635BFF"/>
<path d="M132.048 361.901C128.508 362.441 94.3975 362.491 90.4175 361.991C89.5875 360.791 90.1975 359.581 90.5175 358.411C92.6175 350.661 94.6775 342.901 96.8875 335.181C105.208 306.051 114.518 277.241 125.648 249.041C132.118 232.651 139.188 216.531 147.678 201.061C153.108 191.161 159.088 181.611 166.358 172.931C170.448 168.051 174.908 163.551 180.038 159.761C185.758 155.521 191.958 152.291 199.018 150.861C208.038 149.041 216.668 150.081 224.918 154.211C231.328 157.421 236.648 161.981 241.278 167.381C246.728 173.741 250.958 180.891 254.658 188.361C255.538 190.131 256.358 191.921 257.148 193.731C257.358 194.211 257.358 194.771 257.508 195.591C243.238 195.661 230.428 199.681 218.958 208.371C218.258 207.231 217.698 206.291 217.128 205.361C215.148 202.111 213.228 198.831 211.168 195.641C210.408 194.471 209.338 193.501 208.368 192.491C207.998 192.101 207.478 191.861 206.938 191.481C204.888 192.341 203.238 193.671 201.848 195.231C199.128 198.271 196.378 201.321 193.958 204.591C187.658 213.131 182.688 222.461 178.028 231.961C168.468 251.481 160.698 271.731 153.568 292.231C146.018 313.921 139.368 335.891 133.238 358.021C132.868 359.361 132.438 360.681 132.068 361.901H132.048Z" fill="white"/>
<path d="M293.188 303.941C296.588 310.211 299.428 316.231 304.648 320.821C305.658 320.291 306.638 320.001 307.318 319.381C309.498 317.391 311.708 315.401 313.668 313.191C318.168 308.101 321.808 302.381 325.228 296.531C332.858 283.481 339.128 269.771 344.868 255.811C355.758 229.321 364.738 202.171 372.828 174.721C374.898 167.691 376.828 160.621 378.838 153.581C379.138 152.511 379.528 151.461 379.848 150.471C383.308 149.881 417.988 149.841 421.918 150.431C421.808 151.371 421.808 152.351 421.558 153.261C409.908 196.861 396.618 239.921 378.688 281.421C372.808 295.021 366.308 308.311 358.558 320.961C354.058 328.311 349.138 335.361 343.388 341.801C338.758 346.981 333.658 351.611 327.748 355.301C321.168 359.421 314.048 361.931 306.268 362.281C298.758 362.611 291.738 360.761 285.188 357.101C280.218 354.321 275.888 350.731 272.088 346.511C264.458 338.031 258.958 328.221 254.508 317.791C254.458 317.681 254.528 317.521 254.548 317.241C255.168 316.331 256.238 316.661 257.138 316.621C265.388 316.241 273.388 314.701 280.858 311.091C284.018 309.561 287.018 307.681 290.068 305.941C291.018 305.391 291.918 304.751 293.178 303.931L293.188 303.941Z" fill="white"/>
<path d="M255.798 294.151C234.788 294.311 217.688 276.531 217.848 255.761C217.998 236.131 233.958 217.881 256.528 218.071C278.298 218.251 294.198 236.531 294.038 256.491C293.878 277.161 276.628 294.431 255.788 294.151H255.798Z" fill="white"/>
</svg>
