<svg xmlns="http://www.w3.org/2000/svg" width="1018.838" height="580.279" viewBox="0 0 269.567 153.532"><path d="M13.622 179.542q-1.356 1.07-.57 3.569.713 2.212 3.354 5.496 10.635 13.134 25.34 21.842 14.704 8.71 31.478 12.848 16.846 4.212 34.405 4.212 22.485 0 42.828-6.567 20.343-6.496 33.977-18.273 4.782-4.211 4.782-6.71 0-.928-.785-1.856-1.07-1.07-2.57-.713-1.5.356-4.211 1.784-13.063 6.853-31.836 10.921-18.7 4.14-39.044 4.14-25.197 0-48.681-6.852-23.485-6.853-41.614-21.414-2.642-2.07-4.283-2.641-1.57-.572-2.57.214" style="fill:#fc4c01;fill-opacity:1;fill-rule:nonzero;stroke:none;stroke-width:5.11043167" transform="translate(25.081 -73.977)"/><path d="M172.225 183.115q-1.5 1.428-.785 2.998.5 1.143 1.927 1.285 1.428.214 4.068-.285a66 66 0 0 1 8.923-1.285q4.64-.285 8.066.142 3.426.5 4.283 1.713 1.285 1.929-.928 8.138-2.142 6.21-5.853 12.063-1.428 2.355-1.714 3.712-.285 1.356.714 2.284.642.642 1.428.642 2.07 0 5.996-3.64 7.066-6.139 9.922-14.561a34.3 34.3 0 0 0 1.927-9.137q.356-4.783-1.071-6.853-1.356-1.998-5.996-3.283a33.9 33.9 0 0 0-9.208-1.285q-9.064 0-17.202 4.283-2.998 1.642-4.497 3.069" style="fill:#fc4c01;fill-opacity:1;fill-rule:nonzero;stroke:none;stroke-width:5.11043167" transform="translate(25.081 -73.977)"/><path d="M15.728 79.742c.113-.678-.113-1.243-.678-1.583-3.166-1.47-6.896-2.26-11.079-2.26-11.304 0-18.765 7.347-18.765 18.313v2.374l-8.818 1.356c-.79.113-1.47.791-1.47 1.583v7.235c0 1.017.792 1.808 1.81 1.808h8.365v45.896c0 1.018.904 1.809 1.922 1.809h11.53c.905 0 1.809-.791 1.809-1.809v-45.896H12.45c1.017 0 1.921-.791 1.921-1.808v-8.366c0-1.017-.904-1.808-1.921-1.808H.467v-1.583c0-4.07 2.374-6.896 5.991-6.896 1.809 0 3.618.679 5.426 1.583q.51.34 1.018.34c.678 0 1.243-.34 1.356-1.018zM27.988 73.977c4.86 0 8.93 3.165 8.93 8.817 0 5.426-4.07 8.705-8.93 8.705-4.748 0-8.818-3.279-8.818-8.705 0-5.652 4.07-8.817 8.818-8.817m-7.574 80.374v-56.07c0-1.017.904-1.695 2.035-1.695h11.417c1.018 0 1.809.678 1.809 1.695v56.07c0 1.13-.791 1.922-1.809 1.922H22.45c-1.13 0-2.035-.791-2.035-1.922M76.72 111.281c1.357.792 2.713.453 2.94-.678l2.939-11.643c.226-.905-.227-1.81-1.018-2.148q-3.222-1.357-7.122-1.357c-6.33 0-11.643 3.73-14.017 9.948h-.565l-1.47-7.122q-.339-1.695-2.035-1.695h-9.156c-1.13 0-2.035.678-2.035 1.695v56.07c0 1.13.904 1.922 2.035 1.922h11.417c1.018 0 1.809-.791 1.809-1.922V121.23c0-7.687 3.165-11.982 8.817-11.982 2.6 0 5.2.678 7.461 2.034M107.787 95.23c14.582 0 24.643 12.773 24.643 30.747v2.94c0 1.243-.791 1.921-1.808 1.921H97.726c.678 9.722 3.956 14.696 10.06 14.696 4.41 0 7.914-2.035 9.157-7.574.226-1.244.905-1.696 2.035-1.47l10.74 2.374c1.13.226 1.695 1.018 1.243 2.261-3.618 10.626-11.983 16.391-23.174 16.391-15.487 0-26-12.434-26-30.748 0-18.313 10.739-31.539 26-31.539m9.156 25.547c-.791-8.93-3.843-13.565-9.156-13.565-5.2 0-8.818 4.86-9.948 13.565zM191.882 154.577c.678-.452 1.243-1.695 1.017-2.713l-1.47-7.687c-.225-1.47-1.469-2.035-2.938-1.243-1.583.791-3.392 1.356-4.974 1.356-3.73 0-6.105-2.713-6.105-6.782V108.68h12.096c1.017 0 1.922-.904 1.922-1.921v-8.253c0-1.017-.905-1.921-1.922-1.921h-12.096V84.038c0-1.018-.904-1.922-1.922-1.922h-9.608c-1.13 0-2.035.904-2.148 1.922l-1.583 12.548-8.139 1.695c-.904.226-1.809 1.244-1.809 2.148v6.33c0 1.018.905 1.922 1.809 1.922h8.14v27.244c0 14.017 6.443 21.591 18.538 21.591 4.41 0 8.253-1.017 11.192-2.939M230.813 96.586c-.905 0-1.696.678-1.922 1.582l-9.27 42.392h-.791l-9.27-42.392c-.226-.904-1.017-1.582-1.921-1.582h-11.53c-1.47 0-2.488 1.13-2.036 2.6l15.374 55.617c.226.792 1.13 1.47 2.035 1.47h15.487c.905 0 1.809-.678 2.035-1.47l15.374-55.617c.452-1.47-.565-2.6-2.035-2.6z" style="fill:#fc4c01;fill-opacity:1;fill-rule:nonzero;stroke:none;stroke-width:.26458332" transform="translate(25.081 -73.977)"/></svg>
