<svg xmlns="http://www.w3.org/2000/svg" viewBox="0 0 24 24">
  <title>Microsoft Azure</title>
  <path d="M7.242 1.613A1.11 1.11 0 018.295.857h6.977L8.03 22.316a1.11 1.11 0 01-1.052.755h-5.43a1.11 1.11 0 01-1.053-1.466L7.242 1.613z"
        fill={a.fill} />
  <path d="M18.397 15.296H7.4a.51.51 0 00-.347.882l7.066 6.595c.206.192.477.298.758.298h6.226l-2.706-7.775z"
        fill="#0078D4" />
  <path d="M15.272.857H7.497L0 23.071h7.775l1.596-4.73 5.068 4.73h6.665l-2.707-7.775h-7.998L15.272.857z"
        fill={b.fill} />
  <path d="M17.193 1.613a1.11 1.11 0 00-1.052-.756h-7.81.035c.477 0 .9.304 1.052.756l6.748 19.992a1.11 1.11 0 01-1.052 1.466h-.12 7.895a1.11 1.11 0 001.052-1.466L17.193 1.613z"
        fill={c.fill} />
</svg>