<svg xmlns="http://www.w3.org/2000/svg" viewBox="0 0 1136.55 1136.55"><path fill="currentColor" d="M577.06.07h0C263.15-4.64,5.06,245.86.07,559.5c-4.71,313.91,245.79,571.99,559.43,576.99,313.91,4.71,572.01-245.79,576.99-559.43C1141.2,263.15,890.69,5.06,577.06.07ZM868.43,855.32v.27H268.4c-31.45,0-47.18-38.01-24.64-60.28l10.75-10.73,439.93-434.97h-366.82c-2.62,0-3.67-3.12-2.1-4.71l64.47-63.95h388.81c31.45,0,47.16,37.99,24.64,60.26l-8.67,8.39-440.45,434.97h428.43l-167.43-167.45,50.03-50.03,217.24,217.47,10.73,10.75c22.02,22.29,6.29,60.01-24.89,60.01Z"/></svg>