<svg xmlns="http://www.w3.org/2000/svg" viewBox="0 0 279.62 279.9"><path fill="currentColor" d="M68.4,7.3C92.8,1.1,118.1.1,143.2,0c15.1.5,30.2.6,45.1,2.9,17.2,2.5,34.8,6,49.9,15,11.6,6.8,20.9,17.3,26.6,29.4,8.9,18.3,11.5,38.7,13.4,58.7,2.3,29,2,58.2-2.3,87-2.9,19.1-8.1,38.8-20.7,54-9.9,12.1-24.3,19.7-39.2,23.9-19.6,5.5-56.9,7.9-76.2,9,0,0-39-1.7-50.6-3.7-20.8-3.2-42.8-8.2-58.7-22.9-15.6-14.2-22.5-35.1-26-55.3-2.5-15.2-3.7-30.6-4.5-46v-15.6c1.4-25.2,1.6-51,9.4-75.3,3.9-12.4,10.1-24.3,19.4-33.4,10.8-10.7,25.2-16.7,39.6-20.4ZM85.6,60.4c-5.1,1.3-7.8,6.6-7.6,11.6-.1,44.7,0,89.3-.1,134,.1,3.8.1,8.2,2.9,11.2,3.9,4,10.5,4.6,15.3,1.8,38.7-21,77.3-42.1,115.9-63.1,2.8-1.6,5.7-2.8,8.1-5,4.3-4.1,5.2-11.1,2.1-16.1-2.1-3.9-6.4-5.7-10.1-7.8-38.6-21.8-77.1-43.6-115.7-65.3-3.1-2-7.2-2.5-10.8-1.3Z"/></svg>