<svg xmlns="http://www.w3.org/2000/svg" width="256" height="256" viewBox="0 0 256 256">
<!-- SVG created with Arrow, by QuiverAI (https://quiver.ai) -->
  <path d="m200.1 0h-144.2c-30.77 0-55.81 26.13-55.81 55.81v144.1c0 30.84 25.08 56 55.81 56h144.1c30.92 0 56-25.08 56-55.93v-144.2c0-29.68-24.42-55.81-55.87-55.81z" fill="#993FF5"/>
  <path d="m195.9 107.8c-2.84-27.64-18.85-62.98-60.73-64.4h-3.09c-29.9 0-52.18 21.88-56.84 52.31-2.68 9.26-2.46 20.79-4.86 35.12-2.48 14.9-7.38 20.23-10.77 28.96-1.88 5.11-1.19 17.58 10.84 18.65 6.63 0.59 14.92-2.78 15.03-3.96-2.25 4.59-5.08 12.84-4.78 19.82 0.6 11.64 8.71 17.78 21.25 17.78 14.07 0 24.1-8.4 30.32-12.14 3.01 7.78 6.93 12.14 14.41 12.14 13.02 0 27.47-13.13 33.84-23.58 11.19-19.55 18.26-42.4 16.17-71.32-0.08-2.87-0.35-6.08-0.79-9.38z" fill="#FEFFFE"/>
  <path d="m135.1 90.55c-7.28-0.54-7.85 8.36-7.85 14.05 0 6.08 1.6 13.14 7.96 13.14 6.6 0 8.92-8.08 8.92-13.14 0-5.56-1.59-14.05-9.03-14.05z" fill="#010202"/>
  <path d="m164.4 90.55c-7.27-0.54-8.66 7.59-8.66 14.05 0 5.82 1.51 13.14 8.07 13.14 7.38 0 8.83-9.57 8.83-13.14 0-5.89-2.01-14.05-8.24-14.05z" fill="#010202"/>
</svg>
